<svg width="24" height="24" viewBox="0 0 24 24" fill="none" xmlns="http://www.w3.org/2000/svg">
<mask id="mask0_107_238" style="mask-type:alpha" maskUnits="userSpaceOnUse" x="0" y="0" width="24" height="24">
<rect width="24" height="24" fill="#D9D9D9"/>
</mask>
<g mask="url(#mask0_107_238)">
<path d="M21 21V5H3V13H1V5C1 4.45 1.196 3.979 1.588 3.587C1.97933 3.19567 2.45 3 3 3H21C21.55 3 22.021 3.19567 22.413 3.587C22.8043 3.979 23 4.45 23 5V19C23 19.55 22.8043 20.021 22.413 20.413C22.021 20.8043 21.55 21 21 21ZM9 14C7.9 14 6.95833 13.6083 6.175 12.825C5.39167 12.0417 5 11.1 5 10C5 8.9 5.39167 7.95833 6.175 7.175C6.95833 6.39167 7.9 6 9 6C10.1 6 11.0417 6.39167 11.825 7.175C12.6083 7.95833 13 8.9 13 10C13 11.1 12.6083 12.0417 11.825 12.825C11.0417 13.6083 10.1 14 9 14ZM1 22V19.2C1 18.6333 1.146 18.1127 1.438 17.638C1.72933 17.1627 2.11667 16.8 2.6 16.55C3.63333 16.0333 4.68333 15.6457 5.75 15.387C6.81667 15.129 7.9 15 9 15C10.1 15 11.1833 15.129 12.25 15.387C13.3167 15.6457 14.3667 16.0333 15.4 16.55C15.8833 16.8 16.2707 17.1627 16.562 17.638C16.854 18.1127 17 18.6333 17 19.2V22H1Z" fill="#162942"/>
</g>
</svg>
