<svg width="375" height="285" viewBox="0 0 375 285" fill="none" xmlns="http://www.w3.org/2000/svg">
<g clip-path="url(#clip0_95_851)" filter="url(#filter0_d_95_851)">
<g clip-path="url(#clip1_95_851)">
<path d="M228.052 221.642C228.052 221.642 231.754 232.265 248.146 234.993C248.16 234.979 247.179 222.805 228.052 221.642Z" fill="#305777"/>
<path d="M285.137 69.804C285.137 69.804 298.304 62.4496 308.652 72.3524C319 82.2551 314.794 94.8863 316.841 102.712C318.888 110.551 328.213 111.506 331.087 122.434C333.948 133.375 324.96 138.5 316.56 136.699C316.56 136.699 320.01 151.948 306.633 153.126C293.256 154.317 270.315 151.394 261.734 131.007C253.152 110.634 251.245 77.9339 285.137 69.804Z" fill="#2A3047"/>
<path d="M271.423 135.661C265.337 134.816 259.14 143.652 258.298 149.677L249.941 188.956L223.299 238.816C221.448 242.278 222.794 246.572 226.299 248.4C229.511 250.076 233.409 249.106 235.47 246.281L268.871 200.562C269.67 199.468 270.161 198.235 270.343 196.975L270.441 196.282L280.93 148.098C281.757 142.073 277.509 136.506 271.423 135.661Z" fill="#F69D85"/>
<path d="M231.712 230.201C231.712 230.201 224.925 234.508 222.892 240.768C220.859 247.029 221.504 249.951 223.074 252.278C224.645 254.605 233.829 246.876 235.456 242.791C237.069 238.719 237.251 233.4 231.712 230.201Z" fill="#F69D85"/>
<path d="M229.819 230.09C225.612 232.5 221.868 235.755 218.952 239.605C218.601 240.117 218.012 240.907 217.718 241.447C216.961 242.416 216.4 243.982 217.746 244.743C218.952 245.491 220.017 244.466 220.677 243.524C223.789 239.951 227.94 237.237 232.357 235.478C236.956 234.19 233.871 227.514 229.819 230.09Z" fill="#F69D85"/>
<path d="M222.808 240.824C220.775 245.408 217.844 249.646 214.184 253.123C212.796 254.397 214.661 256.64 216.189 255.546C217.956 254.397 219.639 253.081 221.181 251.654C223.874 249.12 226.384 246.336 228.347 243.206C230.59 239.328 224.168 236.572 222.808 240.824Z" fill="#F69D85"/>
<path d="M224.981 244.037C223.733 247.264 221.995 250.325 219.961 253.136C219.821 253.33 219.541 253.718 219.386 253.912C218.573 255.546 215.194 257.153 216.919 259.106C218.503 260.879 222.471 256.086 223.789 255.02C226.37 252.347 228.739 249.452 230.59 246.225C232.652 242.306 226.201 239.771 224.981 244.037Z" fill="#F69D85"/>
<path d="M226.93 244.785C226.019 249.854 223.972 254.84 220.677 258.87C219.485 260.325 221.658 262.277 223.018 260.989C223.789 260.311 224.729 259.41 225.43 258.649C228.753 254.909 231.333 250.491 232.904 245.768C234.096 241.475 227.197 240.339 226.93 244.785Z" fill="#F69D85"/>
<path d="M231.053 241.89C231.039 247.998 229.244 254.286 225.374 259.134C224.196 260.643 226.482 262.541 227.786 261.17C228.683 260.311 229.735 259.175 230.506 258.206C233.984 253.663 236.157 248.164 237.012 242.541C238.162 237.721 230.744 236.96 231.053 241.89Z" fill="#F69D85"/>
<path d="M276.625 129.761C276.625 129.761 281.323 151.228 279.696 167.945C278.602 179.233 275.658 192.612 272.629 200.022C269.6 207.432 248.16 234.965 248.16 234.965C248.16 234.965 242.173 224.425 228.066 221.614C228.066 221.614 245.482 194.939 247.375 190.756C249.268 186.56 249.717 166.588 252.283 154.982C257.289 132.323 276.625 129.761 276.625 129.761Z" fill="#EB455F"/>
<path d="M227.267 256.516C227.393 256.613 227.561 256.585 227.674 256.474C227.702 256.447 230.38 253.358 231.88 249.632C231.936 249.48 231.866 249.314 231.712 249.258C231.558 249.203 231.39 249.272 231.333 249.425C229.889 253.053 227.267 256.073 227.239 256.1C227.127 256.225 227.141 256.405 227.267 256.516C227.253 256.516 227.253 256.516 227.267 256.516Z" fill="#AF5945"/>
<path d="M222.331 256.142C222.443 256.225 222.612 256.225 222.724 256.114C222.752 256.087 225.486 253.303 228.01 249.258C228.094 249.12 228.052 248.94 227.912 248.857C227.772 248.774 227.59 248.815 227.505 248.954C225.009 252.956 222.317 255.685 222.289 255.713C222.177 255.823 222.177 256.017 222.289 256.128C222.317 256.128 222.317 256.128 222.331 256.142Z" fill="#AF5945"/>
<path d="M220.522 251.959C220.635 252.042 220.803 252.042 220.901 251.932C221.027 251.821 223.888 249.051 225.514 246.544C225.598 246.405 225.556 246.225 225.43 246.142C225.29 246.059 225.108 246.101 225.023 246.225C223.439 248.677 220.522 251.474 220.494 251.502C220.382 251.613 220.368 251.793 220.494 251.918C220.494 251.932 220.508 251.945 220.522 251.959Z" fill="#AF5945"/>
<path d="M231.726 243.926C231.628 243.926 231.53 243.871 231.488 243.774C231.053 242.707 231.053 241.156 231.095 240.367C229.104 241.489 226.734 241.267 226.622 241.267C226.482 241.253 226.384 241.129 226.398 240.99C226.412 240.852 226.538 240.755 226.678 240.768C226.706 240.768 229.342 241.018 231.235 239.688C231.319 239.633 231.418 239.633 231.502 239.674C231.586 239.73 231.642 239.813 231.628 239.91C231.628 239.937 231.418 242.223 231.964 243.58C232.021 243.705 231.95 243.857 231.824 243.899C231.796 243.926 231.754 243.926 231.726 243.926Z" fill="#AF5945"/>
<path d="M294.658 107.698H276.625V135.619H294.658V107.698Z" fill="#FFC6BB"/>
<path d="M289.287 124.207C289.287 124.207 283.047 126.686 276.625 125.481V116.395L289.287 124.207Z" fill="#D1836B"/>
<path d="M283.748 124.567C273.33 123.473 265.786 114.249 266.894 103.958L267.931 94.2908C269.039 84.0003 278.378 76.549 288.796 77.6431C299.215 78.7373 306.759 87.9614 305.637 98.2519L304.6 107.919C303.506 118.21 294.167 125.661 283.748 124.567Z" fill="#FFC6BB"/>
<path d="M270.72 104.437C272.731 102.541 272.804 99.3933 270.884 97.407C268.964 95.4208 265.778 95.348 263.767 97.2444C261.756 99.1409 261.682 102.288 263.602 104.275C265.522 106.261 268.709 106.334 270.72 104.437Z" fill="#FFC6BB"/>
<path d="M288.839 236.89C272.18 236.89 250.852 232.929 257.331 210.354C260.654 198.748 259.967 182.709 258.004 161.754C256.672 147.53 279.177 128.154 285.095 128.154H286.188C302.847 128.154 314.317 145.065 312.606 161.422C310.391 182.515 301.164 187.266 311.709 208.401C325.759 236.586 288.839 236.89 288.839 236.89Z" fill="#FFC6BB"/>
<path d="M319.982 277H293.718L293.396 272.111L292.582 259.784L292.288 255.256L291.068 236.766L290.774 232.375C290.689 230.963 290.746 229.398 290.97 227.943C291.391 225.215 291.727 222.694 292.162 220.478C292.793 217.251 293.62 214.647 295.205 212.916C296.999 210.949 299.776 210.132 304.319 210.825C308.105 211.393 311.484 212.944 314.261 215.174C316.939 217.32 319.028 220.104 320.346 223.248C321.749 226.586 322.267 230.339 321.679 234.162L321.202 246.101L320.711 258.386L319.982 277Z" fill="#F69D85"/>
<path d="M251.736 230.575C251.652 230.575 251.568 230.533 251.525 230.464C246.8 223.497 241.556 220.173 237.994 218.608C234.124 216.919 231.347 216.863 231.319 216.863C231.179 216.863 231.067 216.752 231.067 216.614C231.067 216.475 231.179 216.365 231.319 216.365C231.432 216.365 234.222 216.406 238.176 218.137C241.808 219.73 247.151 223.11 251.96 230.187C252.044 230.298 252.002 230.464 251.89 230.533C251.834 230.561 251.792 230.575 251.736 230.575Z" fill="#C92847"/>
<path d="M297.406 235.879C297.308 237.07 297.098 238.275 296.761 239.48L292.302 255.283L291.026 259.812L286.16 277.014H254.007L254.961 256.557L256.041 233.234C256.111 231.821 256.349 230.27 256.728 228.844C257.036 227.736 257.415 226.669 257.892 225.658C261.425 217.999 269.404 213.262 277.873 213.733C279.289 213.816 280.72 214.038 282.136 214.412C286.16 215.478 289.596 217.653 292.176 220.52C295.92 224.605 297.897 230.159 297.406 235.879Z" fill="#F69D85"/>
<path d="M289.273 99.7615C289.119 101.146 289.582 102.338 290.297 102.407C291.012 102.476 291.713 101.423 291.867 100.025C292.022 98.6396 291.559 97.4485 290.844 97.3793C290.129 97.31 289.428 98.3765 289.273 99.7615Z" fill="#30313C"/>
<path d="M335.196 277H282.585C281.841 256.128 279.794 228.165 277.495 210.658C277.004 210.852 302.608 211.434 316.841 208.415C316.911 208.456 339.206 238.206 334.074 257.873L335.196 277Z" fill="#30313C"/>
<path d="M301.991 224.093C301.781 235.436 300.758 248.732 297.406 259.743C295.485 265.297 293.48 270.975 292.162 277.014H242.481C246.267 255.477 254.975 225.727 262.463 210.368C273.779 212.237 289.189 213.595 301.851 212.639C301.865 212.625 302.104 217.265 301.991 224.093Z" fill="#30313C"/>
<path d="M277.887 98.5705C277.733 99.9555 278.196 101.147 278.911 101.216C279.626 101.285 280.327 100.232 280.481 98.8336C280.636 97.4486 280.173 96.2575 279.458 96.1882C278.743 96.119 278.041 97.1855 277.887 98.5705Z" fill="#30313C"/>
<path d="M296.873 105.579C296.929 106.576 296.074 107.434 294.966 107.49C293.858 107.545 292.919 106.784 292.863 105.786C292.807 104.789 293.662 103.93 294.77 103.875C295.878 103.82 296.831 104.581 296.873 105.579Z" fill="#FFB0A6"/>
<path d="M275.588 104.166C275.644 105.163 274.788 106.022 273.681 106.077C272.573 106.133 271.633 105.371 271.577 104.374C271.521 103.376 272.376 102.518 273.484 102.462C274.592 102.407 275.531 103.169 275.588 104.166Z" fill="#FFB0A6"/>
<path d="M276.625 129.761C276.625 129.761 257.555 147.71 252.212 165.785C249.759 174.108 256.475 182.945 257.934 191.753C259.294 199.911 243.603 254.535 243.603 254.535C243.603 254.535 260.135 257.859 276.611 259.217C302.847 261.391 336.865 256.613 336.865 256.613C335.112 217.057 323.319 177.225 323.095 163.499C322.814 146.131 310.938 134.774 294.658 129.747L278.532 143.015L276.625 129.761Z" fill="#F1F3F2"/>
<path d="M306.436 108.909C309.203 108.646 311.231 106.216 310.964 103.483C310.697 100.749 308.237 98.7472 305.47 99.0107C302.702 99.2743 300.675 101.704 300.942 104.437C301.209 107.171 303.669 109.173 306.436 108.909Z" fill="#FFC6BB"/>
<path d="M296.439 77.3384C296.439 77.3384 291.839 62.7959 275.896 65.7182C259.953 68.6406 258.677 83.1831 266.529 87.5874C271.998 90.6621 286.819 88.1275 292.793 84.9282C292.793 84.9282 293.214 92.6149 302.426 94.7063C311.639 96.7838 313.966 79.4713 296.439 77.3384Z" fill="#2A3047"/>
<path d="M284.879 112.293C286.581 112.051 287.866 111.204 287.748 110.401C287.631 109.599 286.157 109.144 284.455 109.387C282.753 109.629 281.469 110.477 281.586 111.279C281.703 112.082 283.178 112.536 284.879 112.293Z" fill="#DB7777"/>
<path d="M286.287 110.966C287.254 110.689 288.278 110.26 289.315 109.609C289.456 109.526 289.498 109.346 289.399 109.207C289.315 109.069 289.133 109.027 288.993 109.124C284.562 111.922 280.201 110.398 280.159 110.384C280.005 110.329 279.836 110.412 279.78 110.551C279.724 110.703 279.808 110.869 279.948 110.925C280.103 110.966 282.865 111.95 286.287 110.966Z" fill="#AF5945"/>
<path d="M305.651 106.659C305.763 106.631 305.862 106.52 305.862 106.396C305.918 104.928 306.801 104.72 307.656 104.512C308.161 104.387 308.652 104.277 308.89 103.889C309.045 103.64 309.059 103.349 308.974 102.961C308.428 100.814 305.932 100.593 305.819 100.579C305.651 100.565 305.511 100.689 305.497 100.842C305.483 101.008 305.609 101.147 305.763 101.16C305.848 101.174 307.951 101.368 308.386 103.099C308.442 103.321 308.442 103.487 308.372 103.584C308.259 103.764 307.895 103.861 307.502 103.944C306.633 104.152 305.329 104.457 305.259 106.368C305.259 106.534 305.385 106.659 305.539 106.673C305.581 106.659 305.623 106.659 305.651 106.659Z" fill="#AF5945"/>
<path d="M266.95 103.806C267.076 103.778 267.16 103.667 267.16 103.529C267.188 101.618 265.898 101.244 265.043 100.994C264.664 100.883 264.3 100.773 264.202 100.593C264.145 100.482 264.145 100.329 264.216 100.108C264.748 98.3905 266.922 98.3074 266.936 98.3074C267.104 98.3074 267.23 98.1689 267.216 98.0027C267.216 97.8365 267.076 97.7118 266.908 97.7257C266.796 97.7257 264.286 97.8226 263.641 99.9417C263.528 100.316 263.528 100.62 263.669 100.87C263.893 101.271 264.37 101.41 264.861 101.562C265.702 101.811 266.571 102.061 266.557 103.529C266.557 103.695 266.683 103.82 266.852 103.82C266.894 103.82 266.922 103.82 266.95 103.806Z" fill="#AF5945"/>
<path d="M309.886 109.152C309.732 108.639 309.437 108.196 309.045 107.878C308.4 107.351 307.502 107.13 306.633 107.379C305.862 107.601 305.259 108.155 304.964 108.833C304.726 109.373 304.67 109.983 304.852 110.592C305.259 111.963 306.703 112.753 308.105 112.365C309.479 111.963 310.279 110.523 309.886 109.152ZM307.923 111.811C306.843 112.116 305.721 111.506 305.399 110.44C305.245 109.914 305.315 109.373 305.567 108.916C305.819 108.459 306.24 108.099 306.787 107.947C307.404 107.767 308.035 107.891 308.512 108.238C308.876 108.487 309.171 108.861 309.297 109.318C309.634 110.384 309.003 111.492 307.923 111.811Z" fill="#EFBB6A"/>
<path d="M266.501 105.786C266.487 105.62 266.459 105.468 266.403 105.302C265.996 103.93 264.538 103.127 263.15 103.529C263.094 103.543 263.052 103.556 262.996 103.584C261.705 104.041 260.962 105.426 261.355 106.742C261.762 108.113 263.22 108.903 264.608 108.515C265.856 108.155 266.627 106.991 266.501 105.786ZM264.454 107.947C263.374 108.252 262.252 107.642 261.93 106.576C261.621 105.509 262.238 104.401 263.318 104.083C263.332 104.083 263.36 104.069 263.374 104.069C264.44 103.792 265.534 104.415 265.828 105.454C265.842 105.523 265.856 105.579 265.87 105.648C266.08 106.659 265.463 107.656 264.454 107.947Z" fill="#EFBB6A"/>
<path d="M293.971 97.4763C294.055 97.4486 294.125 97.4071 294.195 97.3517C294.391 97.1578 294.377 96.8531 294.181 96.6592C294.083 96.5622 291.783 94.4016 288.572 94.8033C288.306 94.831 288.109 95.0803 288.137 95.3573C288.165 95.6204 288.418 95.8143 288.698 95.7866C291.433 95.4404 293.466 97.3517 293.494 97.3794C293.62 97.4763 293.802 97.5179 293.971 97.4763Z" fill="#2A3047"/>
<path d="M282.416 95.1772C282.557 95.1357 282.669 95.0525 282.725 94.914C282.837 94.6647 282.725 94.3739 282.486 94.2631C282.388 94.2215 279.948 93.1274 277.27 94.734C277.032 94.8725 276.962 95.1772 277.102 95.4127C277.242 95.6481 277.551 95.7173 277.789 95.5788C280.005 94.2492 281.996 95.1218 282.08 95.1633C282.192 95.2049 282.318 95.2049 282.416 95.1772Z" fill="#2A3047"/>
<path d="M284.716 106.922C284.814 106.894 284.884 106.825 284.912 106.714C284.954 106.562 284.87 106.396 284.702 106.354C284.015 106.16 282.613 105.579 282.697 104.997C282.809 104.18 284.225 100.579 284.772 99.263C284.828 99.1107 284.758 98.9445 284.604 98.8891C284.45 98.8337 284.281 98.9029 284.225 99.0553C284.141 99.2492 282.262 103.875 282.122 104.928C281.954 106.174 284.281 106.853 284.548 106.922C284.618 106.95 284.674 106.936 284.716 106.922Z" fill="#AF5945"/>
<path d="M331.648 228.913C331.648 228.913 341.871 233.843 355.416 224.328C355.416 224.328 346.007 216.392 331.648 228.913Z" fill="#305777"/>
<path d="M354.491 241.17L345.432 185.507C345.208 184.164 344.675 182.959 343.904 181.947L343.483 181.393L316.448 139.968C312.746 135.121 305.763 134.137 300.856 137.794C295.948 141.45 297.883 152.018 301.585 156.865L323.754 190.493L340.553 244.369C341.716 248.109 345.741 250.214 349.527 249.051C352.99 248.026 355.066 244.605 354.491 241.17Z" fill="#F69D85"/>
<path d="M340.356 232.417C340.356 232.417 338.631 240.201 341.674 246.045C344.717 251.904 347.255 253.51 350.031 254.064C352.808 254.605 353.775 242.735 352.009 238.719C350.242 234.702 346.568 230.81 340.356 232.417Z" fill="#F69D85"/>
<path d="M338.94 233.65C337.692 238.303 337.369 243.206 338.043 247.97C338.169 248.58 338.309 249.549 338.477 250.145C338.631 251.364 339.347 252.859 340.861 252.458C342.249 252.139 342.263 250.671 342.067 249.563C341.716 244.854 342.712 240.048 344.577 235.727C346.919 231.586 339.964 229.024 338.94 233.65Z" fill="#F69D85"/>
<path d="M341.66 246.156C343.497 250.81 344.465 255.865 344.353 260.879C344.283 262.748 347.199 263.039 347.508 261.197C347.928 259.161 348.181 257.042 348.265 254.951C348.363 251.281 348.153 247.555 347.297 243.968C346.091 239.674 339.571 242.195 341.66 246.156Z" fill="#F69D85"/>
<path d="M345.488 246.904C346.905 250.062 347.872 253.441 348.447 256.848C348.489 257.084 348.559 257.555 348.587 257.79C349.176 259.521 347.928 263.012 350.564 263.192C352.948 263.344 352.345 257.181 352.513 255.505C352.429 251.821 352.037 248.109 351.041 244.536C349.681 240.325 343.301 243.04 345.488 246.904Z" fill="#F69D85"/>
<path d="M347.395 246.087C350.368 250.311 352.485 255.269 353.046 260.422C353.243 262.291 356.187 262.153 356.215 260.283C356.285 259.258 356.299 257.984 356.243 256.959C355.921 252.001 354.603 247.07 352.317 242.624C350.116 238.732 344.409 242.735 347.395 246.087Z" fill="#F69D85"/>
<path d="M348.251 241.156C352.612 245.491 355.837 251.198 356.552 257.319C356.79 259.203 359.777 258.967 359.707 257.07C359.721 255.837 359.651 254.3 359.511 253.067C358.725 247.416 356.328 242.015 352.906 237.431C350.298 233.234 344.507 237.874 348.251 241.156Z" fill="#F69D85"/>
<path d="M294.672 129.761C294.672 129.761 312.62 125.412 328.297 144.414C335.547 153.195 345.615 173.319 348.77 180.687C351.925 188.055 355.416 224.328 355.416 224.328C355.416 224.328 343.637 221.032 331.648 228.913C331.648 228.913 324.904 197.875 323.249 193.595C321.594 189.302 307.614 174.856 301.136 164.843C288.46 145.287 294.672 129.761 294.672 129.761Z" fill="#EB455F"/>
<path d="M356.033 254.161C356.187 254.147 356.3 254.009 356.285 253.857C356.285 253.815 355.977 249.757 354.364 246.073C354.294 245.921 354.126 245.851 353.972 245.921C353.818 245.99 353.747 246.156 353.818 246.308C355.388 249.896 355.697 253.857 355.697 253.898C355.711 254.064 355.851 254.175 356.005 254.161C356.019 254.161 356.019 254.161 356.033 254.161Z" fill="#AF5945"/>
<path d="M352.261 257.333C352.401 257.319 352.514 257.194 352.514 257.042C352.514 257 352.457 253.136 351.35 248.497C351.308 248.344 351.153 248.247 350.999 248.275C350.845 248.317 350.747 248.469 350.775 248.621C351.869 253.192 351.925 257 351.925 257.042C351.925 257.208 352.065 257.333 352.219 257.333C352.247 257.333 352.261 257.333 352.261 257.333Z" fill="#AF5945"/>
<path d="M347.998 255.629C348.139 255.616 348.251 255.491 348.251 255.339C348.251 255.172 348.307 251.211 347.662 248.303C347.634 248.15 347.465 248.04 347.311 248.081C347.157 248.109 347.045 248.275 347.087 248.427C347.718 251.267 347.662 255.283 347.662 255.325C347.662 255.491 347.788 255.616 347.956 255.616C347.97 255.629 347.984 255.629 347.998 255.629Z" fill="#AF5945"/>
<path d="M331.648 229.162C331.536 229.162 331.424 229.079 331.396 228.968L322.997 193.706C315.018 183.083 309.872 172.419 306.969 165.355C303.814 157.682 302.524 152.447 302.51 152.392C302.482 152.253 302.566 152.115 302.707 152.087C302.847 152.059 302.987 152.142 303.015 152.281C303.029 152.336 304.305 157.53 307.446 165.175C310.349 172.225 315.481 182.862 323.445 193.443C323.459 193.471 323.488 193.498 323.488 193.54L331.887 228.857C331.915 228.996 331.831 229.134 331.691 229.162C331.676 229.162 331.662 229.162 331.648 229.162Z" fill="#C92847"/>
<path d="M330.442 223.719C330.358 223.719 330.274 223.677 330.232 223.608C330.148 223.497 330.19 223.331 330.302 223.262C336.795 218.996 343.119 217.86 347.283 217.639C351.798 217.403 354.743 218.179 354.869 218.221C355.009 218.262 355.094 218.401 355.051 218.525C355.009 218.664 354.869 218.747 354.743 218.705C354.715 218.691 351.742 217.916 347.297 218.151C343.203 218.359 336.977 219.495 330.597 223.677C330.541 223.705 330.499 223.719 330.442 223.719Z" fill="#C92847"/>
<path d="M294.43 160.093L291.417 160.176L291.587 166.157L294.601 166.073L294.43 160.093Z" fill="#F76C59"/>
<path d="M289.753 167.738L290.71 167.711C290.716 167.733 290.721 167.759 290.725 167.79C290.73 167.821 290.733 167.851 290.734 167.882C290.737 168.008 290.721 168.126 290.686 168.238C290.651 168.35 290.594 168.451 290.515 168.54C290.43 168.636 290.328 168.71 290.208 168.764C290.087 168.819 289.949 168.848 289.793 168.852C289.651 168.856 289.517 168.835 289.39 168.787C289.263 168.74 289.152 168.672 289.057 168.584C288.961 168.495 288.885 168.39 288.827 168.268C288.769 168.144 288.738 168.009 288.733 167.862C288.729 167.714 288.753 167.578 288.804 167.453C288.854 167.326 288.925 167.216 289.015 167.123C289.105 167.029 289.212 166.955 289.336 166.901C289.46 166.847 289.593 166.818 289.735 166.814C289.893 166.809 290.034 166.833 290.159 166.884C290.286 166.935 290.396 167.007 290.488 167.101L290.241 167.356C290.176 167.291 290.103 167.242 290.024 167.209C289.945 167.175 289.851 167.16 289.742 167.163C289.653 167.165 289.569 167.184 289.49 167.219C289.411 167.252 289.342 167.298 289.284 167.358C289.225 167.418 289.179 167.49 289.145 167.575C289.113 167.657 289.098 167.75 289.101 167.851C289.104 167.953 289.124 168.045 289.161 168.128C289.2 168.209 289.25 168.277 289.312 168.334C289.375 168.39 289.447 168.434 289.528 168.464C289.609 168.493 289.695 168.506 289.786 168.503C289.889 168.501 289.976 168.484 290.046 168.453C290.118 168.42 290.178 168.379 290.228 168.33C290.263 168.296 290.293 168.255 290.317 168.205C290.343 168.153 290.362 168.096 290.375 168.034L289.762 168.051L289.753 167.738ZM291.599 167.378C291.703 167.375 291.798 167.391 291.884 167.425C291.973 167.457 292.049 167.504 292.112 167.566C292.177 167.626 292.229 167.699 292.266 167.785C292.305 167.871 292.325 167.966 292.328 168.07C292.331 168.173 292.316 168.269 292.282 168.358C292.25 168.446 292.203 168.523 292.141 168.588C292.081 168.651 292.008 168.703 291.922 168.741C291.838 168.778 291.744 168.798 291.64 168.801C291.536 168.804 291.44 168.789 291.352 168.757C291.266 168.723 291.19 168.676 291.125 168.616C291.061 168.554 291.01 168.48 290.971 168.394C290.934 168.308 290.914 168.213 290.911 168.109C290.908 168.006 290.923 167.91 290.955 167.822C290.988 167.733 291.035 167.658 291.095 167.594C291.157 167.529 291.23 167.478 291.315 167.441C291.401 167.402 291.496 167.381 291.599 167.378ZM291.631 168.471C291.676 168.47 291.719 168.461 291.761 168.443C291.804 168.424 291.841 168.397 291.873 168.363C291.905 168.33 291.929 168.289 291.946 168.241C291.965 168.194 291.973 168.14 291.971 168.08C291.97 168.02 291.958 167.967 291.937 167.92C291.917 167.873 291.891 167.834 291.857 167.802C291.823 167.77 291.784 167.747 291.74 167.732C291.698 167.715 291.654 167.707 291.609 167.708C291.562 167.709 291.517 167.72 291.476 167.739C291.435 167.756 291.398 167.782 291.366 167.816C291.335 167.849 291.309 167.89 291.291 167.938C291.274 167.986 291.266 168.039 291.268 168.099C291.27 168.159 291.28 168.213 291.3 168.259C291.321 168.306 291.349 168.345 291.382 168.377C291.416 168.409 291.454 168.433 291.496 168.45C291.539 168.466 291.583 168.472 291.631 168.471ZM293.17 167.334C293.273 167.332 293.368 167.347 293.455 167.381C293.543 167.413 293.619 167.46 293.683 167.522C293.748 167.582 293.799 167.655 293.836 167.741C293.875 167.828 293.896 167.923 293.899 168.026C293.902 168.13 293.886 168.226 293.852 168.314C293.82 168.402 293.774 168.479 293.712 168.544C293.652 168.608 293.579 168.659 293.492 168.698C293.408 168.735 293.314 168.754 293.21 168.757C293.107 168.76 293.011 168.746 292.923 168.713C292.836 168.679 292.76 168.633 292.695 168.572C292.631 168.511 292.58 168.437 292.541 168.35C292.504 168.264 292.484 168.169 292.481 168.066C292.479 167.962 292.493 167.866 292.525 167.778C292.559 167.69 292.606 167.614 292.666 167.55C292.728 167.485 292.801 167.434 292.885 167.397C292.971 167.358 293.066 167.337 293.17 167.334ZM293.201 168.427C293.246 168.426 293.29 168.417 293.331 168.399C293.374 168.38 293.412 168.353 293.443 168.32C293.475 168.286 293.5 168.245 293.516 168.198C293.535 168.15 293.543 168.096 293.542 168.036C293.54 167.976 293.529 167.923 293.507 167.876C293.488 167.829 293.461 167.79 293.427 167.758C293.394 167.727 293.355 167.703 293.311 167.688C293.269 167.671 293.225 167.663 293.179 167.664C293.132 167.666 293.088 167.676 293.046 167.695C293.005 167.713 292.969 167.738 292.937 167.772C292.905 167.806 292.88 167.846 292.861 167.894C292.844 167.942 292.837 167.996 292.839 168.056C292.84 168.116 292.851 168.169 292.87 168.216C292.892 168.262 292.919 168.302 292.953 168.333C292.986 168.365 293.024 168.39 293.067 168.407C293.109 168.422 293.154 168.429 293.201 168.427ZM294.74 167.291C294.844 167.288 294.939 167.303 295.025 167.337C295.114 167.37 295.189 167.416 295.253 167.478C295.318 167.538 295.37 167.612 295.407 167.698C295.445 167.784 295.466 167.879 295.469 167.982C295.472 168.086 295.457 168.182 295.423 168.27C295.391 168.358 295.344 168.435 295.282 168.501C295.222 168.564 295.149 168.615 295.063 168.654C294.979 168.691 294.885 168.711 294.781 168.714C294.677 168.716 294.581 168.702 294.493 168.67C294.407 168.636 294.331 168.589 294.266 168.529C294.202 168.467 294.151 168.393 294.112 168.307C294.075 168.22 294.055 168.125 294.052 168.022C294.049 167.918 294.064 167.822 294.096 167.734C294.129 167.646 294.176 167.57 294.236 167.507C294.298 167.441 294.371 167.39 294.456 167.353C294.542 167.314 294.637 167.294 294.74 167.291ZM294.772 168.384C294.817 168.383 294.86 168.373 294.902 168.356C294.945 168.336 294.982 168.31 295.014 168.276C295.046 168.242 295.07 168.202 295.087 168.154C295.106 168.106 295.114 168.052 295.112 167.992C295.111 167.932 295.099 167.879 295.078 167.832C295.058 167.786 295.032 167.746 294.998 167.715C294.964 167.683 294.925 167.659 294.881 167.644C294.839 167.627 294.795 167.619 294.75 167.621C294.703 167.622 294.658 167.632 294.617 167.652C294.576 167.669 294.539 167.695 294.507 167.728C294.476 167.762 294.45 167.803 294.432 167.85C294.415 167.898 294.407 167.952 294.409 168.012C294.411 168.072 294.421 168.125 294.441 168.172C294.462 168.219 294.49 168.258 294.523 168.29C294.557 168.322 294.595 168.346 294.637 168.363C294.68 168.378 294.724 168.385 294.772 168.384ZM295.993 167.474L296.015 167.474C296.055 167.405 296.11 167.351 296.18 167.311C296.249 167.269 296.33 167.247 296.421 167.244C296.504 167.242 296.578 167.253 296.642 167.279C296.707 167.304 296.76 167.342 296.801 167.392C296.844 167.44 296.877 167.499 296.899 167.569C296.923 167.637 296.936 167.714 296.938 167.8L296.961 168.609L296.604 168.619L296.582 167.853C296.58 167.757 296.556 167.687 296.511 167.643C296.468 167.596 296.405 167.575 296.324 167.577C296.275 167.578 296.231 167.59 296.194 167.613C296.158 167.634 296.127 167.663 296.101 167.7C296.076 167.736 296.057 167.778 296.044 167.827C296.033 167.875 296.028 167.926 296.03 167.981L296.048 168.635L295.691 168.645L295.653 167.309L295.988 167.3L295.993 167.474ZM297.07 168.868C297.085 168.877 297.099 168.883 297.112 168.886C297.126 168.889 297.144 168.891 297.164 168.89C297.245 168.888 297.285 168.833 297.282 168.726L297.24 167.265L297.597 167.255L297.639 168.727C297.642 168.814 297.632 168.888 297.61 168.949C297.588 169.011 297.558 169.062 297.519 169.101C297.48 169.14 297.434 169.169 297.382 169.187C297.33 169.206 297.274 169.217 297.214 169.219C297.169 169.22 297.128 169.217 297.091 169.211C297.054 169.207 297.021 169.199 296.989 169.187L297.07 168.868ZM297.412 167.066C297.381 167.067 297.351 167.063 297.321 167.053C297.294 167.041 297.269 167.025 297.246 167.006C297.226 166.984 297.209 166.96 297.195 166.933C297.183 166.906 297.177 166.877 297.176 166.844C297.175 166.811 297.18 166.781 297.19 166.753C297.202 166.726 297.218 166.702 297.237 166.681C297.258 166.659 297.282 166.642 297.309 166.63C297.338 166.617 297.368 166.609 297.399 166.609C297.462 166.607 297.517 166.628 297.564 166.672C297.611 166.714 297.635 166.767 297.637 166.831C297.639 166.895 297.618 166.95 297.573 166.996C297.529 167.041 297.475 167.065 297.412 167.066Z" fill="black"/>
<path d="M160.605 163.139C160.605 163.139 164.461 174.759 157.745 185.022C157.745 185.022 150.93 174.51 160.605 163.139Z" fill="#DBBFB2"/>
<path d="M60.7391 45.3311C60.7391 45.3311 53.125 50.511 47.9508 63.6408C44.2069 73.1419 34.5736 88.8755 30.5633 98.0165C14.3816 134.968 28.5861 154.275 78.3931 152.738C101.922 152.018 107.237 134.04 103.367 118.265C99.5245 102.587 94.799 87.4489 98.6972 70.1918C98.6972 70.1918 94.8551 54.846 85.6566 51.9929C76.486 49.1398 60.7391 45.3311 60.7391 45.3311Z" fill="#2A3047"/>
<path d="M69.1458 80.4291L67.7162 108.065L85.5713 108.966L87.0009 81.3302L69.1458 80.4291Z" fill="#FFC6BB"/>
<path d="M73.4152 95.6896C73.4152 95.6896 78.6876 100.357 86.0633 99.5537L86.5681 89.928L73.4152 95.6896Z" fill="#FFB0A6"/>
<path d="M78.323 96.5622C88.6854 96.0359 96.664 87.3104 96.1312 77.0752L95.6264 67.4495C95.0936 57.2143 86.2595 49.3337 75.8971 49.86C65.5347 50.3863 57.5561 59.1118 58.0889 69.3469L58.5937 78.9727C59.1265 89.2078 67.9606 97.0885 78.323 96.5622Z" fill="#FFC6BB"/>
<path d="M68.2971 208.595C84.7872 209.426 109.522 206.213 104.264 183.526C101.558 171.878 98.2486 156.145 102.652 135.758C106.101 119.816 94.2943 102.518 77.5658 101.146L76.4861 101.091C60.3745 100.537 51.6667 115.98 52.5221 132.267C53.6299 153.264 47.9649 167.529 43.015 177.778C29.4836 205.894 68.2971 208.595 68.2971 208.595Z" fill="#FFC6BB"/>
<path d="M82.7119 106.562C88.1806 103.903 94.7991 106.133 97.4913 111.534L119.506 155.743L167.869 167.973C171.248 168.818 173.562 172.017 173.183 175.549C172.749 179.413 169.243 182.197 165.331 181.767L109.859 175.756C106.718 175.396 103.745 173.499 102.245 170.493L77.6779 121.16C74.9857 115.744 77.2432 109.207 82.7119 106.562Z" fill="#FFC6BB"/>
<path d="M74.2144 71.7152C74.2845 73.1002 73.7657 74.2498 73.0506 74.2775C72.3355 74.319 71.7044 73.2249 71.6343 71.8399C71.5642 70.4549 72.0831 69.3053 72.7982 69.2776C73.5133 69.2499 74.1443 70.3302 74.2144 71.7152Z" fill="#30313C"/>
<path d="M85.881 103.168C85.881 103.168 108.288 101.091 120.502 153.056C120.502 153.056 146.597 158.776 160.605 163.139C160.605 163.139 154.38 173.139 157.745 185.022C157.745 185.022 110.925 185.202 102.133 175.23C93.3548 165.244 87.4374 135.965 87.4374 135.965L85.881 103.168Z" fill="#F1F3F2"/>
<path d="M85.5584 71.1474C85.6285 72.5324 85.1097 73.6819 84.3946 73.7096C83.6794 73.7512 83.0484 72.657 82.9783 71.272C82.9082 69.887 83.427 68.7374 84.1422 68.7097C84.8433 68.682 85.4883 69.7624 85.5584 71.1474Z" fill="#30313C"/>
<path d="M66.376 77.0752C66.2639 78.0585 67.0631 78.9588 68.1569 79.0696C69.2506 79.1804 70.2181 78.4879 70.3303 77.5045C70.4425 76.5212 69.6432 75.6209 68.5495 75.5101C67.4558 75.3855 66.4882 76.0918 66.376 77.0752Z" fill="#FFC6BB"/>
<path d="M100.702 277H78.2108L68.1288 243.275L66.6425 238.261L60.7672 218.622L60.7251 218.484L68.3952 218.096L83.1466 217.362L84.9134 223.373L99.9172 274.327L100.702 277Z" fill="#F69D85"/>
<path d="M123.615 277H65.8852C50.3766 247.139 46.9693 219.716 54.5693 189.731C69.2365 196.185 91.6861 195.285 104.446 193.166C111.107 216.254 118.553 243.58 123.615 277Z" fill="#30313C"/>
<path d="M67.8063 219.038L66.6424 238.261L64.469 273.856L64.2727 277H41.7951L44.3331 235.242L45.3988 217.708L50.8254 218.027L59.9398 218.567L60.7671 218.622L67.8063 219.038Z" fill="#F69D85"/>
<path d="M85.7267 200.756C85.0396 224.495 83.8757 249.466 81.2396 277H28.9086C24.3374 245.616 23.6783 210.991 40.2947 190.756C50.2925 197.639 77.6779 201.628 85.7267 200.756Z" fill="#30313C"/>
<path d="M87.5356 76.8121C87.4234 77.7955 88.2227 78.6957 89.3164 78.8065C90.4102 78.9173 91.3777 78.2248 91.4899 77.2415C91.602 76.2581 90.8028 75.3579 89.709 75.2471C88.6153 75.1224 87.6478 75.8288 87.5356 76.8121Z" fill="#FFC6BB"/>
<path d="M85.881 103.169C85.881 103.169 94.6869 105.578 102.722 119.124C104.923 122.836 109.887 132.697 109.593 138.306C109.284 144.4 102.806 147.544 102.231 158.582C101.67 169.524 113.421 197.446 108.288 204.024C105.274 207.888 56.9952 210.534 40.1685 198.581C30.8017 191.933 50.601 160.466 48.3715 130.121C46.6748 107.005 59.7015 104 68.0166 102.268C68.0166 102.268 74.8034 116.437 80.9451 116.174C85.923 115.966 85.881 103.169 85.881 103.169Z" fill="#EB455F"/>
<path d="M52.4099 75.3716C52.5502 78.0862 54.8919 80.1775 57.6542 80.039C60.4026 79.9005 62.52 77.5876 62.3797 74.8591C62.2395 72.1445 59.8978 70.0532 57.1354 70.1917C54.3871 70.3302 52.2697 72.657 52.4099 75.3716Z" fill="#FFC6BB"/>
<path d="M127.765 277H99.9312C100.394 255.602 97.3091 229.674 96.3556 206.725C96.3836 202.515 96.622 198.29 96.9585 194.122C97.5755 186.31 98.6132 178.61 99.0619 170.798C101.011 151.09 90.284 116.935 85.881 103.169C101.291 105.537 113.084 131.021 114.542 145.771C115.482 160.674 115.047 169.87 115.37 181.172C115.917 204.966 127.597 256.848 127.765 277Z" fill="#F1F3F2"/>
<path d="M72.0831 138.057C72.1953 147.309 70.6108 153.513 70.0359 163.527C69.6713 169.275 69.4469 174.551 69.2226 181.366C68.227 212.417 68.0727 246.502 67.9886 277H23.0193C22.4725 248.15 26.1042 209.107 37.2379 178.596C42.8047 159.857 44.3752 142.627 48.2032 126.201C51.1199 114.789 55.7472 106.853 68.0026 102.268C70.1901 112.171 71.999 122.905 72.0831 138.057Z" fill="#F1F3F2"/>
<path d="M83.1466 45.9543C83.1466 45.9543 91.7703 43.0319 97.7998 51.0095C103.072 57.9899 100.941 65.6628 97.7297 72.8094C97.7157 72.8094 85.6846 57.2559 83.1466 45.9543Z" fill="#2A3047"/>
<path d="M90.9991 74.236C91.1393 76.9506 93.481 79.0419 96.2434 78.9034C98.9917 78.7649 101.109 76.452 100.969 73.7235C100.829 71.0089 98.4869 68.9176 95.7246 69.0561C92.9622 69.2084 90.8448 71.5214 90.9991 74.236Z" fill="#FFC6BB"/>
<path d="M96.2293 76.8674C96.3696 76.8397 96.4677 76.7151 96.4677 76.5627C96.3836 75.1085 97.2249 74.8176 98.0522 74.5406C98.543 74.3744 99.0058 74.2082 99.2021 73.8066C99.3283 73.5573 99.3142 73.2526 99.188 72.8786C98.4449 70.815 95.9489 70.8427 95.8508 70.8427C95.6965 70.8427 95.5563 70.9812 95.5703 71.1335C95.5703 71.2997 95.7105 71.4244 95.8648 71.4244C95.9489 71.4244 98.0382 71.4105 98.6412 73.0864C98.7113 73.2941 98.7253 73.4603 98.6832 73.5711C98.5851 73.765 98.2345 73.8897 97.87 74.0143C97.0426 74.3052 95.7806 74.7345 95.8928 76.6181C95.9068 76.7705 96.0471 76.8951 96.2013 76.8951C96.2013 76.8674 96.2153 76.8674 96.2293 76.8674Z" fill="#2A3047"/>
<path d="M57.5841 77.9616C57.7103 77.9339 57.8085 77.8369 57.8225 77.6984C57.9908 75.8148 56.7568 75.3439 55.9295 75.0392C55.5649 74.9007 55.2144 74.7622 55.1302 74.5683C55.0882 74.4575 55.1022 74.3052 55.1863 74.0836C55.8454 72.4216 57.9908 72.5047 58.0188 72.5047C58.1731 72.5185 58.3133 72.3939 58.3273 72.2277C58.3413 72.0615 58.2151 71.9368 58.0469 71.923C57.9347 71.923 55.4528 71.826 54.6395 73.862C54.4992 74.2221 54.4852 74.5268 54.5974 74.7899C54.7797 75.2054 55.2424 75.3716 55.7332 75.5655C56.5465 75.8702 57.3878 76.1888 57.2476 77.643C57.2336 77.7954 57.3458 77.9477 57.514 77.9616C57.528 77.9616 57.5561 77.9616 57.5841 77.9616Z" fill="#2A3047"/>
<path d="M89.8913 51.3972C89.8913 51.3972 86.0212 61.5216 75.7569 61.7847C63.7118 62.0894 58.776 77.2413 58.776 77.2413C58.776 77.2413 51.7929 65.8428 53.7841 57.6574C58.3553 38.9461 77.9163 34.2925 89.8913 51.3972Z" fill="#2A3047"/>
<path d="M86.9887 66.106C87.0448 66.0921 87.1149 66.0644 87.171 66.0367C87.3954 65.8844 87.4515 65.5797 87.2972 65.3581C87.2552 65.2888 86.1194 63.6961 84.3385 63.4606C83.2728 63.3221 82.2352 63.6961 81.2256 64.5548C81.0153 64.7348 81.0012 65.0395 81.1835 65.2334C81.3658 65.4412 81.6743 65.455 81.8706 65.275C82.6559 64.6102 83.4411 64.3055 84.2123 64.4024C85.5585 64.5686 86.4839 65.8705 86.4979 65.8844C86.5961 66.0644 86.8064 66.1337 86.9887 66.106Z" fill="#2A3047"/>
<path d="M75.6868 65.7459C75.7709 65.732 75.8551 65.6905 75.9252 65.6212C76.1215 65.4412 76.1355 65.1365 75.9532 64.9426C75.9111 64.8872 74.8174 63.7376 73.2189 63.7792C72.0831 63.8069 71.0034 64.4301 70.0218 65.6074C69.8535 65.8151 69.8816 66.1198 70.0919 66.286C70.3023 66.4522 70.6107 66.4245 70.779 66.2168C71.5643 65.2611 72.3916 64.7625 73.2329 64.7487C74.3827 64.7071 75.2241 65.5935 75.2381 65.5935C75.3503 65.732 75.5325 65.7874 75.6868 65.7459Z" fill="#2A3047"/>
<path d="M79.3326 79.3882C79.3466 79.3882 79.3606 79.3744 79.3746 79.3744C79.627 79.2774 81.8846 78.4187 81.6182 77.2138C81.3938 76.1889 79.1643 71.7707 79.0661 71.5768C78.996 71.4383 78.8138 71.3829 78.6735 71.4522C78.5333 71.5214 78.4772 71.7015 78.5473 71.84C79.1783 73.1003 80.875 76.549 81.0573 77.3384C81.1835 77.9063 79.8514 78.5988 79.1924 78.8342C79.0381 78.8896 78.968 79.0558 79.0241 79.2082C79.0521 79.3328 79.1924 79.4159 79.3326 79.3882Z" fill="#2A3047"/>
<path d="M98.0522 150.508C102.623 150.009 105.484 147.876 105.638 147.766C105.764 147.669 105.792 147.489 105.694 147.364C105.596 147.239 105.414 147.212 105.288 147.309C105.246 147.35 100.548 150.84 93.6913 149.857C93.5371 149.829 93.3828 149.94 93.3548 150.106C93.3267 150.259 93.4389 150.411 93.6072 150.439C95.2197 150.66 96.7061 150.66 98.0522 150.508Z" fill="#DBBFB2"/>
<path d="M77.1171 138.666L98.4589 140.73C98.6271 139.082 97.4072 137.614 95.7245 137.447L80.4263 135.965C78.7717 135.813 77.2853 137.018 77.1171 138.666Z" fill="#FFA4B5"/>
<path d="M64.1886 195.825L98.9357 199.177C101.964 199.468 104.643 197.279 104.951 194.302L109.621 147.142C109.915 144.151 107.7 141.505 104.685 141.201L69.9377 137.849C66.9089 137.558 64.2306 139.747 63.9222 142.724L59.2528 189.884C58.9583 192.875 61.1738 195.534 64.1886 195.825Z" fill="#30313C"/>
<path d="M18.995 162.64L39.187 120.661C41.8091 115.218 48.3855 112.905 53.8963 115.495C59.407 118.085 61.7487 124.581 59.1266 130.024L44.9361 159.538L86.9887 170.632C90.3681 171.518 92.6537 174.759 92.205 178.291C91.7142 182.141 88.1666 184.87 84.2684 184.399L27.1699 177.377C26.1042 177.238 24.9965 176.934 23.9588 176.449C18.7426 173.984 16.513 167.807 18.995 162.64Z" fill="#FFC6BB"/>
<path d="M77.692 172.239C77.692 172.239 85.2219 169.579 91.4338 171.809C97.6456 174.025 99.5667 176.297 100.464 178.914C101.347 181.546 89.6529 183.983 85.4323 182.765C81.2116 181.56 76.8787 178.471 77.692 172.239Z" fill="#FFC6BB"/>
<path d="M81.506 175.923C85.0256 173.859 89.0079 172.474 93.0603 171.906C93.5931 171.865 94.4345 171.754 94.9533 171.754C96.1873 171.851 97.7718 171.477 97.7017 169.953C97.5614 167.723 94.4485 168.277 92.878 168.042C87.9141 167.987 82.9082 168.942 78.337 170.881C74.3547 172.806 77.9724 178.596 81.506 175.923Z" fill="#FFC6BB"/>
<path d="M90.4662 177.571C96.1032 177.972 101.866 177.349 107.223 175.563C109.018 175.022 108.345 172.225 106.508 172.529C105.077 172.737 103.633 172.89 102.189 172.917C98.6131 172.973 94.9954 172.64 91.5319 171.768C87.0308 170.23 85.6987 177.391 90.4662 177.571Z" fill="#FFC6BB"/>
<path d="M91.4618 181.144C97.1268 181.781 102.946 181.435 108.443 179.925C110.266 179.482 109.747 176.657 107.896 176.864C106.283 177.017 104.657 177.1 103.03 177.031C99.5666 176.892 96.0891 176.393 92.7659 175.41C88.3769 173.734 86.7784 180.756 91.4618 181.144Z" fill="#FFC6BB"/>
<path d="M89.7371 182.737C95.388 184.565 101.544 185.244 107.419 184.15C109.354 183.859 108.962 180.881 107.026 181.061C106.676 181.061 105.905 181.061 105.568 181.061C100.913 180.853 96.2994 179.51 92.1769 177.377C88.1946 174.787 85.1518 181.435 89.7371 182.737Z" fill="#FFC6BB"/>
<path d="M83.9178 183.609C88.5872 186.282 93.9157 187.931 99.3142 188.221C101.011 188.318 102.974 188.194 104.657 187.958C106.55 187.778 106.395 184.856 104.502 184.856C104.474 184.856 103.254 184.828 103.198 184.828C98.571 184.676 94.0559 183.014 90.1016 180.687C89.1621 180.119 88.2226 179.51 87.3673 178.831C84.0019 175.66 79.8233 181.435 83.9178 183.609Z" fill="#FFC6BB"/>
<path opacity="0.5" d="M101.039 185.022C101.193 185.008 101.305 184.87 101.305 184.717C101.291 184.551 101.165 184.44 100.997 184.44C100.955 184.44 96.9726 184.648 93.2146 183.568C93.0604 183.526 92.8921 183.609 92.85 183.762C92.808 183.914 92.8921 184.08 93.0463 184.122C96.9025 185.23 100.983 185.022 101.025 185.008C101.025 185.022 101.025 185.022 101.039 185.022Z" fill="#AF5945"/>
<path opacity="0.5" d="M103.703 180.964C103.717 180.964 103.717 180.964 103.703 180.964C103.871 180.95 103.998 180.798 103.97 180.645C103.956 180.493 103.801 180.368 103.647 180.396C103.647 180.396 103.647 180.396 103.633 180.396C103.395 180.424 99.6788 180.812 95.1216 180.341C94.9673 180.327 94.8131 180.438 94.7991 180.604C94.7851 180.756 94.8973 180.909 95.0655 180.922C99.6788 181.38 103.451 180.992 103.703 180.964Z" fill="#AF5945"/>
<path opacity="0.5" d="M100.38 177.155C101.025 177.086 101.446 177.031 101.502 177.017C101.656 176.989 101.768 176.851 101.754 176.684C101.726 176.532 101.572 176.421 101.418 176.435C101.376 176.435 97.3792 177.003 94.4766 176.754C94.3223 176.74 94.1681 176.851 94.1541 177.017C94.1401 177.169 94.2522 177.322 94.4205 177.335C96.4677 177.515 98.9637 177.322 100.38 177.155Z" fill="#AF5945"/>
<path d="M165.681 168.554C165.681 168.554 173.478 170.313 177.502 175.479C181.527 180.645 181.933 183.582 181.246 186.269C180.573 188.955 169.369 184.801 166.481 181.546C163.578 178.277 161.601 173.374 165.681 168.554Z" fill="#FFC6BB"/>
<path d="M166.971 167.765L167.406 167.82C167.546 167.834 167.645 167.862 167.743 167.876C167.841 167.89 167.939 167.917 168.037 167.931C168.219 167.973 168.416 168 168.598 168.042C168.963 168.125 169.327 168.208 169.692 168.291C170.056 168.374 170.407 168.485 170.771 168.582L171.837 168.901C173.239 169.344 174.614 169.856 175.96 170.452C177.306 171.034 178.61 171.726 179.858 172.488L180.797 173.07L181.695 173.707L182.144 174.025L182.578 174.371L183.434 175.064C184.079 175.59 184.261 176.504 183.826 177.238C183.349 178.042 182.298 178.319 181.47 177.848L181.358 177.779L180.531 177.294L180.124 177.058L179.704 176.851L178.848 176.421L178.245 176.158C178.442 176.352 178.652 176.56 178.862 176.754C179.311 177.183 179.774 177.599 180.251 178C181.204 178.817 182.186 179.593 183.223 180.327C183.728 180.701 184.261 181.033 184.78 181.393L185.579 181.892L185.986 182.141L186.392 182.377C187.486 183.028 188.622 183.554 189.772 184.08L189.842 184.108C190.529 184.413 190.907 185.174 190.711 185.909C190.501 186.74 189.631 187.252 188.79 187.03C187.43 186.684 186.07 186.31 184.766 185.825L184.275 185.645L183.784 185.451L183.448 185.313C183.518 185.368 183.602 185.424 183.672 185.479L184.457 186.019L184.85 186.296L185.256 186.546C186.322 187.252 187.444 187.848 188.594 188.429L188.664 188.457C189.337 188.803 189.673 189.579 189.449 190.313C189.183 191.13 188.299 191.587 187.472 191.338C186.126 190.922 184.78 190.479 183.476 189.911L183.013 189.717L183.251 189.911L184.037 190.479L184.429 190.77L184.836 191.033L185.663 191.545L185.761 191.615C186.392 192.016 186.673 192.82 186.364 193.526C186.028 194.315 185.102 194.689 184.303 194.357L183.279 193.928L182.76 193.706L182.256 193.457L181.26 192.958L180.293 192.418C179.788 192.127 179.283 191.809 178.792 191.49L179.437 191.989L179.9 192.349L180.377 192.667L181.344 193.304L181.47 193.388C182.115 193.817 182.354 194.648 182.017 195.354C181.639 196.13 180.699 196.448 179.914 196.088L178.708 195.52L178.105 195.23L177.53 194.897L176.366 194.232L175.259 193.484C175.076 193.36 174.88 193.235 174.712 193.097L174.179 192.695C173.828 192.418 173.464 192.155 173.141 191.864L172.146 190.978C171.809 190.687 171.515 190.368 171.192 190.05C169.93 188.803 168.766 187.46 167.715 186.033L166.943 184.953C166.691 184.579 166.439 184.219 166.2 183.845C165.962 183.471 165.724 183.083 165.499 182.695C165.387 182.501 165.275 182.294 165.163 182.1C165.107 182.003 165.05 181.892 164.994 181.781C164.938 181.67 164.882 181.573 164.812 181.421L164.644 181.075C164.56 180.881 164.49 180.673 164.433 180.465C164.083 178.859 165.121 177.28 166.747 176.934C168.374 176.587 169.972 177.612 170.323 179.219C170.337 179.261 170.351 179.33 170.379 179.399C170.617 179.191 170.898 179.011 171.22 178.887C171.543 178.762 171.865 178.693 172.188 178.679C172.272 178.61 172.356 178.54 172.44 178.471C171.851 177.211 172.23 175.673 173.422 174.815C173.52 174.745 173.632 174.676 173.744 174.621C172.721 174.358 171.683 174.15 170.631 173.998L169.678 173.873C169.355 173.845 169.047 173.804 168.738 173.776C168.43 173.748 168.107 173.721 167.799 173.707C167.645 173.693 167.49 173.693 167.336 173.679C167.266 173.679 167.182 173.679 167.112 173.679C167.042 173.679 166.971 173.679 166.929 173.679C166.691 173.707 166.425 173.707 166.186 173.665C164.532 173.444 163.382 171.934 163.606 170.3C163.831 168.665 165.317 167.53 166.971 167.765Z" fill="#FFC6BB"/>
<path opacity="0.5" d="M172.118 186.67C172.132 186.684 172.132 186.698 172.146 186.712C174.796 189.689 178.358 191.684 178.4 191.698C178.54 191.781 178.722 191.725 178.792 191.587C178.876 191.448 178.82 191.268 178.68 191.199C178.652 191.185 175.175 189.232 172.58 186.338C172.468 186.213 172.286 186.213 172.174 186.31C172.076 186.407 172.062 186.559 172.118 186.67Z" fill="#AF5945"/>
<path opacity="0.5" d="M175.553 184.994C175.567 185.022 175.595 185.05 175.623 185.077C179.367 188.014 182.859 189.703 182.887 189.717C183.027 189.786 183.209 189.731 183.279 189.579C183.349 189.44 183.293 189.26 183.139 189.191C183.111 189.177 179.662 187.515 175.974 184.62C175.848 184.523 175.665 184.537 175.567 184.662C175.497 184.773 175.497 184.897 175.553 184.994Z" fill="#AF5945"/>
<path opacity="0.5" d="M176.941 181.657C176.955 181.684 176.983 181.712 177.011 181.74C179.381 183.54 182.999 185.161 183.153 185.23C183.293 185.299 183.476 185.23 183.546 185.091C183.616 184.939 183.546 184.773 183.406 184.704C183.363 184.69 179.69 183.042 177.376 181.283C177.25 181.186 177.067 181.213 176.969 181.338C176.885 181.421 176.885 181.546 176.941 181.657Z" fill="#AF5945"/>
<path opacity="0.5" d="M170.758 180.396C170.8 180.479 170.884 180.535 170.982 180.535C171.136 180.549 171.29 180.438 171.304 180.285C171.459 178.928 171.038 177.391 170.772 176.587C172.903 177.169 175.315 176.795 175.427 176.781C175.581 176.754 175.693 176.601 175.665 176.449C175.637 176.297 175.497 176.186 175.329 176.213C175.301 176.213 172.51 176.643 170.393 175.867C170.281 175.826 170.155 175.853 170.084 175.936C170 176.02 169.986 176.144 170.028 176.241C170.042 176.269 170.94 178.471 170.729 180.23C170.715 180.285 170.729 180.355 170.758 180.396Z" fill="#AF5945"/>
<path d="M68.0166 102.268C68.0166 102.268 45.9316 99.9416 32.6806 122.379C19.4296 144.816 13.2739 164.012 16.471 173.43C20.5234 185.327 72.3775 188.845 72.3775 188.845C72.3775 188.845 79.0521 180.715 77.2573 165.618C77.2573 165.618 60.655 160.535 49.297 158.652C49.2829 158.652 68.6897 120.121 68.0166 102.268Z" fill="#F1F3F2"/>
<path d="M62.0852 161.56C62.0712 161.56 62.0432 161.56 62.0292 161.56L49.2269 158.901C49.1568 158.887 49.0866 158.832 49.0446 158.763C49.0025 158.693 49.0025 158.61 49.0446 158.541C49.1568 158.306 59.8978 135.038 64.1185 121.894C64.1605 121.755 64.3008 121.686 64.441 121.728C64.5812 121.769 64.6513 121.908 64.6092 122.046C60.6269 134.414 50.8955 155.729 49.6475 158.458L62.1413 161.048C62.2816 161.076 62.3657 161.214 62.3377 161.353C62.3096 161.477 62.2114 161.56 62.0852 161.56Z" fill="#818496"/>
<path d="M59.4911 187.834C59.4771 187.834 59.4771 187.834 59.4631 187.834C59.2948 187.82 42.5803 185.825 35.7094 183.803C35.5692 183.762 35.4991 183.623 35.5412 183.485C35.5832 183.346 35.7235 183.277 35.8637 183.318C42.6925 185.313 59.3649 187.307 59.5332 187.321C59.6734 187.335 59.7716 187.46 59.7575 187.598C59.7295 187.737 59.6173 187.834 59.4911 187.834Z" fill="#818496"/>
<path d="M47.5722 235.935C47.3759 235.935 47.1796 235.935 46.9693 235.921C43.6601 235.768 40.6172 234.356 38.3877 231.932C36.1582 229.508 35.0223 226.378 35.1766 223.123L35.8917 208.082C35.8917 208.013 35.9198 207.958 35.9759 207.902C36.032 207.847 36.088 207.833 36.1581 207.833L60.4026 208.969C60.5428 208.969 60.655 209.093 60.641 209.232L59.9258 224.273C59.7716 227.542 58.3413 230.547 55.8874 232.749C53.5878 234.813 50.6571 235.935 47.5722 235.935ZM36.3965 208.345L35.6954 223.137C35.5412 226.267 36.6349 229.273 38.7803 231.586C40.9117 233.899 43.8423 235.256 47.0114 235.408C50.1804 235.561 53.2232 234.48 55.5649 232.361C57.9066 230.256 59.2808 227.362 59.435 224.231L60.1361 209.44L36.3965 208.345Z" fill="#818496"/>
<path d="M115.37 181.421C115.243 181.421 115.131 181.324 115.117 181.2C115.103 181.103 113.981 171.574 111.429 159.413C109.074 148.209 104.979 132.406 98.8655 120.814C98.7954 120.689 98.8515 120.537 98.9777 120.467C99.1039 120.398 99.2581 120.453 99.3282 120.578C105.47 132.226 109.578 148.07 111.934 159.317C114.486 171.491 115.622 181.047 115.622 181.144C115.636 181.283 115.538 181.407 115.398 181.421C115.398 181.421 115.384 181.421 115.37 181.421Z" fill="#818496"/>
<path d="M67.7222 188.706C67.6801 188.706 67.6381 188.692 67.596 188.678C67.4698 188.609 67.4277 188.457 67.4978 188.332C71.2558 181.947 72.3635 175.756 72.644 171.684C72.9385 167.266 72.3355 164.33 72.3215 164.302C72.2934 164.164 72.3776 164.025 72.5178 163.998C72.658 163.97 72.7982 164.053 72.8263 164.192C72.8263 164.219 73.4573 167.225 73.1628 171.698C72.8964 175.826 71.7746 182.114 67.9465 188.581C67.8905 188.665 67.8063 188.706 67.7222 188.706Z" fill="#818496"/>
<path d="M153.861 185.244C153.763 185.244 153.664 185.188 153.622 185.091C150.734 178 151.547 172.031 152.753 168.264C154.057 164.178 156.02 161.809 156.104 161.713C156.188 161.602 156.357 161.588 156.469 161.685C156.581 161.768 156.595 161.934 156.497 162.045C156.483 162.073 154.506 164.455 153.23 168.444C152.052 172.128 151.253 177.972 154.085 184.897C154.141 185.022 154.071 185.174 153.945 185.23C153.931 185.23 153.889 185.244 153.861 185.244Z" fill="#30313C"/>
<path d="M86.4138 84.0417C86.3296 85.1635 85.4462 86.6316 83.6374 87.6427C81.1835 89.0138 76.486 88.8892 74.4388 87.5873C73.331 86.8809 72.6439 85.7868 72.4476 84.8311C72.2934 84.014 72.5037 83.2938 73.1487 83.0306C74.551 82.4628 78.2668 83.6539 80.8469 82.9752C83.6233 82.2412 85.5864 81.9503 86.2034 82.9891C86.3717 83.2938 86.4418 83.6539 86.4138 84.0417Z" fill="#D1836B"/>
<path d="M86.4138 84.0416C80.6647 86.2161 73.275 84.9834 72.4617 84.8449C72.3074 84.0278 72.5178 83.3076 73.1628 83.0444C74.565 82.4766 78.2809 83.6677 80.861 82.989C83.6374 82.255 85.6005 81.9641 86.2175 83.0029C86.3717 83.2937 86.4418 83.6538 86.4138 84.0416Z" fill="white"/>
<path d="M86.4699 82.8783C85.7688 81.6872 83.7636 81.9365 80.7769 82.7259C79.4448 83.0722 77.7761 82.906 76.2898 82.7536C74.9296 82.6151 73.7658 82.4905 73.0506 82.7813C72.5038 83.0029 72.1672 83.5154 72.1252 84.1802C72.1111 84.4018 72.1252 84.6511 72.1672 84.9004C72.3916 86.0222 73.2049 87.1579 74.2846 87.8366C76.0093 88.9307 79.2905 89.2077 81.8285 88.626C82.5577 88.4598 83.2308 88.2105 83.7917 87.9058C85.7407 86.8117 86.5681 85.2882 86.6943 84.1802C86.6943 84.1386 86.7083 84.0971 86.7083 84.0694C86.7503 83.6123 86.6662 83.1968 86.4699 82.8783ZM86.1053 84.1663C86.1053 84.1802 86.1053 84.1802 86.1053 84.194C85.9651 85.1081 85.2219 86.4516 83.4972 87.4072C81.2256 88.6814 76.6543 88.6537 74.6071 87.3657C73.5274 86.6732 72.9525 85.6621 72.7702 84.9142C72.7562 84.8727 72.7562 84.845 72.7421 84.8034C72.7141 84.6926 72.6861 84.4572 72.7141 84.194C72.7421 83.8616 72.8683 83.4877 73.275 83.3353C73.3311 83.3076 73.4012 83.2938 73.4853 83.2661C74.1163 83.1276 75.1399 83.2245 76.2337 83.3353C77.7621 83.4877 79.5009 83.6677 80.9311 83.2938C83.2308 82.6844 85.4182 82.255 85.9651 83.183C86.0913 83.4046 86.1474 83.6954 86.1193 84.0417C86.1193 84.0694 86.1053 84.1109 86.1053 84.1663Z" fill="#AF5945"/>
<path d="M41.949 217.874L43.7465 217.939C43.7552 217.98 43.7619 218.03 43.7666 218.088C43.7713 218.146 43.7725 218.204 43.7704 218.263C43.7617 218.498 43.7176 218.719 43.6382 218.924C43.5588 219.13 43.4393 219.312 43.2796 219.47C43.1093 219.639 42.908 219.766 42.6757 219.854C42.4435 219.941 42.1805 219.979 41.8869 219.969C41.6206 219.959 41.3715 219.902 41.1394 219.798C40.9074 219.694 40.7075 219.554 40.5397 219.377C40.3719 219.2 40.2411 218.993 40.1472 218.757C40.0535 218.518 40.0118 218.26 40.022 217.984C40.0322 217.707 40.0928 217.455 40.2038 217.226C40.315 216.994 40.4608 216.796 40.6412 216.632C40.8216 216.467 41.0314 216.342 41.2705 216.255C41.5096 216.167 41.7623 216.129 42.0286 216.138C42.3256 216.149 42.5883 216.21 42.8166 216.321C43.0484 216.432 43.2446 216.58 43.4052 216.767L42.9117 217.216C42.7969 217.086 42.6673 216.985 42.5229 216.915C42.3786 216.842 42.204 216.801 41.9992 216.794C41.8319 216.788 41.672 216.813 41.5195 216.869C41.3672 216.921 41.2326 217 41.1159 217.105C40.9992 217.211 40.9038 217.34 40.8298 217.495C40.7592 217.646 40.7204 217.817 40.7133 218.009C40.7063 218.2 40.7323 218.375 40.7913 218.534C40.8539 218.691 40.9395 218.825 41.0481 218.939C41.1602 219.052 41.2902 219.142 41.4381 219.209C41.5862 219.272 41.7456 219.307 41.9163 219.313C42.1109 219.32 42.2758 219.299 42.4109 219.249C42.5496 219.196 42.6684 219.127 42.7673 219.042C42.8378 218.983 42.8987 218.908 42.9499 218.817C43.0047 218.724 43.0478 218.619 43.0794 218.504L41.9272 218.463L41.949 217.874ZM45.4562 217.421C45.6508 217.428 45.8271 217.468 45.985 217.543C46.1465 217.613 46.283 217.711 46.3947 217.834C46.5099 217.955 46.5969 218.098 46.6557 218.264C46.7179 218.43 46.7454 218.611 46.7382 218.805C46.731 219 46.6903 219.178 46.6159 219.339C46.545 219.501 46.4476 219.639 46.3237 219.754C46.2033 219.866 46.0599 219.953 45.8935 220.016C45.7307 220.075 45.5519 220.101 45.3573 220.094C45.1627 220.087 44.9847 220.048 44.8232 219.977C44.6653 219.903 44.5287 219.806 44.4135 219.686C44.3019 219.562 44.2149 219.417 44.1527 219.251C44.0939 219.084 44.0681 218.904 44.0753 218.709C44.0825 218.515 44.1216 218.337 44.1925 218.175C44.2668 218.014 44.3642 217.877 44.4846 217.765C44.6085 217.65 44.7518 217.563 44.9147 217.504C45.0811 217.442 45.2616 217.414 45.4562 217.421ZM45.3803 219.474C45.4656 219.477 45.5481 219.465 45.6278 219.437C45.711 219.406 45.7844 219.361 45.8482 219.301C45.9119 219.242 45.9625 219.169 45.9999 219.081C46.0407 218.994 46.0632 218.894 46.0674 218.781C46.0715 218.669 46.0565 218.567 46.0222 218.477C45.9914 218.387 45.9463 218.31 45.8872 218.247C45.828 218.183 45.758 218.134 45.6772 218.101C45.5999 218.064 45.5186 218.044 45.4333 218.04C45.3445 218.037 45.2602 218.051 45.1805 218.083C45.1008 218.111 45.0291 218.154 44.9654 218.213C44.9017 218.273 44.8494 218.346 44.8085 218.433C44.7711 218.521 44.7503 218.621 44.7462 218.734C44.742 218.846 44.7553 218.948 44.7862 219.038C44.8205 219.128 44.8672 219.205 44.9264 219.268C44.9856 219.332 45.0538 219.382 45.131 219.419C45.2084 219.453 45.2915 219.471 45.3803 219.474ZM48.4068 217.527C48.6014 217.534 48.7776 217.575 48.9356 217.649C49.097 217.72 49.2336 217.817 49.3453 217.941C49.4605 218.061 49.5475 218.204 49.6063 218.371C49.6685 218.537 49.696 218.717 49.6888 218.912C49.6816 219.106 49.6408 219.284 49.5665 219.446C49.4956 219.607 49.3982 219.746 49.2742 219.861C49.1539 219.973 49.0105 220.06 48.8441 220.122C48.6812 220.181 48.5025 220.207 48.3079 220.2C48.1133 220.193 47.9353 220.154 47.7738 220.084C47.6159 220.01 47.4793 219.912 47.3641 219.792C47.2525 219.668 47.1655 219.523 47.1033 219.357C47.0445 219.191 47.0187 219.01 47.0259 218.816C47.0331 218.621 47.0721 218.443 47.1431 218.282C47.2174 218.12 47.3148 217.984 47.4351 217.872C47.559 217.757 47.7024 217.669 47.8653 217.61C48.0317 217.548 48.2122 217.52 48.4068 217.527ZM48.3308 219.581C48.4162 219.584 48.4987 219.571 48.5783 219.544C48.6615 219.512 48.735 219.467 48.7987 219.408C48.8625 219.349 48.913 219.275 48.9504 219.188C48.9913 219.1 49.0138 219 49.018 218.888C49.0221 218.775 49.0071 218.674 48.9728 218.584C48.9419 218.494 48.8969 218.417 48.8377 218.353C48.7786 218.289 48.7086 218.241 48.6278 218.207C48.5505 218.17 48.4692 218.15 48.3839 218.147C48.2951 218.144 48.2108 218.158 48.131 218.189C48.0514 218.217 47.9797 218.261 47.916 218.32C47.8522 218.379 47.8 218.452 47.7591 218.54C47.7217 218.627 47.7009 218.727 47.6967 218.84C47.6926 218.953 47.7059 219.054 47.7368 219.144C47.771 219.234 47.8178 219.311 47.877 219.375C47.9361 219.438 48.0043 219.489 48.0816 219.526C48.159 219.559 48.2421 219.578 48.3308 219.581ZM51.3573 217.634C51.5519 217.641 51.7282 217.681 51.8861 217.755C52.0476 217.826 52.1842 217.923 52.2958 218.047C52.411 218.167 52.498 218.311 52.5568 218.477C52.6191 218.643 52.6466 218.824 52.6394 219.018C52.6322 219.213 52.5914 219.391 52.5171 219.552C52.4461 219.714 52.3487 219.852 52.2248 219.967C52.1045 220.079 51.9611 220.166 51.7947 220.229C51.6318 220.288 51.4531 220.314 51.2585 220.307C51.0639 220.3 50.8859 220.261 50.7244 220.19C50.5665 220.116 50.4299 220.019 50.3147 219.898C50.203 219.775 50.1161 219.63 50.0539 219.463C49.9951 219.297 49.9693 219.117 49.9765 218.922C49.9837 218.728 50.0227 218.55 50.0936 218.388C50.168 218.227 50.2653 218.09 50.3857 217.978C50.5096 217.863 50.653 217.776 50.8159 217.717C50.9822 217.654 51.1627 217.627 51.3573 217.634ZM51.2814 219.687C51.3668 219.69 51.4493 219.678 51.5289 219.65C51.6121 219.619 51.6856 219.574 51.7493 219.514C51.813 219.455 51.8636 219.382 51.901 219.294C51.9419 219.207 51.9644 219.107 51.9685 218.994C51.9727 218.881 51.9576 218.78 51.9234 218.69C51.8925 218.6 51.8475 218.523 51.7883 218.459C51.7291 218.396 51.6591 218.347 51.5783 218.313C51.5011 218.276 51.4198 218.256 51.3344 218.253C51.2457 218.25 51.1614 218.264 51.0816 218.296C51.0019 218.323 50.9303 218.367 50.8665 218.426C50.8028 218.485 50.7505 218.559 50.7097 218.646C50.6723 218.734 50.6515 218.834 50.6473 218.946C50.6431 219.059 50.6565 219.16 50.6873 219.25C50.7216 219.341 50.7683 219.417 50.8275 219.481C50.8867 219.545 50.9549 219.595 51.0322 219.632C51.1096 219.666 51.1926 219.684 51.2814 219.687ZM53.6846 218.128L53.7255 218.129C53.8087 218.006 53.9182 217.911 54.054 217.844C54.1899 217.774 54.3433 217.741 54.514 217.748C54.671 217.753 54.8083 217.784 54.9259 217.839C55.0435 217.895 55.1381 217.972 55.2097 218.07C55.2848 218.165 55.3387 218.28 55.3713 218.414C55.4075 218.546 55.4226 218.691 55.4166 218.852L55.3604 220.373L54.6895 220.349L54.7428 218.91C54.7495 218.729 54.7134 218.594 54.6346 218.506C54.5594 218.414 54.445 218.366 54.2913 218.36C54.1991 218.357 54.1165 218.374 54.0432 218.413C53.9736 218.448 53.9119 218.498 53.8581 218.565C53.8079 218.628 53.7675 218.705 53.7368 218.796C53.7096 218.884 53.6941 218.979 53.6903 219.082L53.6449 220.311L52.974 220.287L53.0668 217.777L53.6967 217.8L53.6846 218.128ZM55.5328 220.871C55.5595 220.889 55.5847 220.902 55.6083 220.91C55.6354 220.918 55.6677 220.922 55.7052 220.924C55.8589 220.929 55.9394 220.831 55.9468 220.63L56.0483 217.885L56.7192 217.909L56.6169 220.674C56.6109 220.838 56.5836 220.976 56.535 221.087C56.4864 221.201 56.4231 221.293 56.3454 221.362C56.2676 221.431 56.1787 221.479 56.0785 221.506C55.9783 221.537 55.8718 221.55 55.7591 221.546C55.6738 221.543 55.5972 221.533 55.5294 221.517C55.4615 221.505 55.399 221.485 55.3419 221.459L55.5328 220.871ZM56.3947 217.533C56.3366 217.531 56.2807 217.519 56.2268 217.497C56.1765 217.471 56.1315 217.439 56.0919 217.399C56.0559 217.357 56.0269 217.31 56.0049 217.258C55.9863 217.206 55.9781 217.149 55.9804 217.088C55.9827 217.026 55.995 216.97 56.0174 216.92C56.0432 216.87 56.0755 216.826 56.1145 216.79C56.157 216.751 56.2042 216.722 56.2562 216.703C56.3117 216.681 56.3684 216.671 56.4265 216.673C56.546 216.677 56.6468 216.724 56.729 216.812C56.8113 216.897 56.8503 217 56.8458 217.119C56.8414 217.239 56.795 217.339 56.7065 217.422C56.6181 217.501 56.5141 217.538 56.3947 217.533Z" fill="#2A3047"/>
<path d="M187.752 228.29L186.378 250.907L184.794 277H135.94C137.034 264.867 138.128 254.494 139.011 246.558C140.245 235.672 141.1 229.356 141.1 229.356L178.372 228.511L187.752 228.29Z" fill="#30313C"/>
<path d="M230.731 277H181.148L179.662 251.073L178.372 228.497L178.358 228.29L224.715 228.165C224.715 228.165 225.753 234.854 227.197 246.225C228.235 254.341 229.483 264.854 230.731 277Z" fill="#30313C"/>
<path d="M190.206 69.4162C190.206 69.4162 196.755 68.4744 200.793 74.9839C203.92 80.0253 203.668 86.6041 202.658 93.4044C201.648 100.205 202.644 106.95 205.603 113.902C208.561 120.855 209.164 128.334 205.364 132.752C201.564 137.17 186.028 136.146 183.279 126.88C180.531 117.6 182.943 75.4548 190.206 69.4162Z" fill="#2A3047"/>
<path d="M182.003 228.165H183.097C199.755 228.165 223.565 213.401 213.904 200.049C207.51 191.199 210.062 169.386 210.188 156.713C210.342 140.301 199.755 123.196 183.097 123.196H182.003C165.345 123.196 156.146 139.982 155.585 156.394C154.982 174.441 157.436 190.59 151.841 200.049C143.456 214.232 165.345 228.165 182.003 228.165Z" fill="#FFC6BB"/>
<path d="M191.244 102.504H173.211V130.425H191.244V102.504Z" fill="#FFC6BB"/>
<path d="M191.244 124.581C191.244 124.581 216.54 128.431 220.018 158.957C221.195 169.33 229.539 218.082 230.59 245.547C230.59 245.547 174.095 258.012 135.674 245.547C135.674 245.547 138.857 187.1 142.895 158.957C145.363 141.755 156.932 129.595 173.197 124.581L182.676 140.328L191.244 124.581Z" fill="#EB455F"/>
<path d="M178.904 119.013C178.904 119.013 184.934 121.409 191.244 120.343V111.396L178.904 119.013Z" fill="#FFB0A6"/>
<path d="M184.527 118.972C194.862 117.282 201.859 107.642 200.148 97.4487L198.549 87.8506C196.839 77.6432 187.079 70.732 176.759 72.4217C166.425 74.1114 159.427 83.751 161.138 93.9446L162.737 103.543C164.433 113.736 174.193 120.647 184.527 118.972Z" fill="#FFC6BB"/>
<path d="M204.663 94.6206C204.809 91.8784 202.678 89.5381 199.901 89.3933C197.125 89.2486 194.756 91.3542 194.609 94.0964C194.462 96.8386 196.594 99.179 199.371 99.3237C202.147 99.4684 204.516 97.3628 204.663 94.6206Z" fill="#FFC6BB"/>
<path d="M170.309 100.759C170.309 101.756 171.22 102.559 172.328 102.559C173.436 102.559 174.333 101.742 174.333 100.745C174.333 99.7478 173.422 98.9445 172.314 98.9445C171.206 98.9445 170.309 99.7616 170.309 100.759Z" fill="#FFB0A6"/>
<path d="M191.496 98.1411C191.496 99.1383 192.408 99.9416 193.516 99.9416C194.623 99.9416 195.521 99.1245 195.521 98.1273C195.521 97.1301 194.609 96.3268 193.502 96.3268C192.38 96.3268 191.496 97.1439 191.496 98.1411Z" fill="#FFB0A6"/>
<path d="M165.931 101.384C166.328 98.6656 164.419 96.1445 161.667 95.7527C158.915 95.3608 156.363 97.2465 155.966 99.9645C155.569 102.683 157.478 105.204 160.23 105.596C162.982 105.987 165.534 104.102 165.931 101.384Z" fill="#F69D85"/>
<path d="M185.783 106.217C185.853 105.409 184.522 104.636 182.809 104.49C181.096 104.344 179.65 104.881 179.58 105.688C179.509 106.496 180.841 107.269 182.554 107.415C184.266 107.561 185.712 107.025 185.783 106.217Z" fill="#DB7777"/>
<path d="M181.05 106.174C180.068 105.952 179.017 105.578 177.951 104.983C177.811 104.9 177.755 104.72 177.839 104.581C177.923 104.443 178.105 104.387 178.245 104.47C182.845 107.019 187.093 105.246 187.135 105.218C187.29 105.149 187.458 105.218 187.528 105.371C187.598 105.523 187.528 105.689 187.374 105.758C187.234 105.828 184.527 106.95 181.05 106.174Z" fill="#2A3047"/>
<path d="M187.893 77.0615C187.893 77.0615 193.277 86.2717 198.83 89.4572C198.83 89.4572 201.733 79.8038 190.248 73.1558L187.893 77.0615Z" fill="#2A3047"/>
<path d="M199.601 97.1993C199.475 97.1716 199.391 97.0746 199.377 96.9361C199.195 95.0387 200.457 94.5678 201.284 94.2492C201.663 94.1107 202.013 93.9722 202.097 93.7783C202.139 93.6675 202.125 93.5013 202.041 93.2936C201.382 91.6316 199.279 91.7008 199.181 91.7008C199.012 91.7008 198.886 91.59 198.872 91.4238C198.858 91.2576 198.984 91.133 199.153 91.1191C199.265 91.1191 201.775 91.0222 202.588 93.072C202.728 93.4321 202.742 93.7368 202.63 93.9999C202.448 94.4154 201.985 94.5955 201.494 94.7755C200.681 95.0802 199.826 95.4126 199.966 96.8669C199.98 97.0331 199.868 97.1716 199.699 97.1854C199.657 97.2131 199.629 97.2131 199.601 97.1993Z" fill="#AF5945"/>
<path d="M204.201 96.4652C204.074 96.4098 203.934 96.3683 203.808 96.3406C203.303 96.2298 202.798 96.2713 202.35 96.4237C201.536 96.7145 200.877 97.3932 200.667 98.2934C200.597 98.612 200.583 98.9305 200.625 99.2352C200.765 100.191 201.438 101.008 202.392 101.327C202.476 101.354 202.56 101.368 202.644 101.396C204.06 101.714 205.463 100.842 205.785 99.443C206.065 98.1826 205.378 96.9223 204.201 96.4652ZM205.21 99.3045C204.958 100.385 203.864 101.063 202.77 100.814C202.616 100.786 202.476 100.731 202.35 100.676C201.719 100.385 201.284 99.7754 201.2 99.0829C201.172 98.8613 201.186 98.6397 201.242 98.4042C201.382 97.7948 201.789 97.3101 202.322 97.0469C202.728 96.853 203.205 96.7838 203.682 96.8807C203.766 96.8946 203.85 96.9223 203.934 96.95C204.874 97.3239 205.434 98.3211 205.21 99.3045Z" fill="#EFBB6A"/>
<path d="M172.356 91.0499C172.258 91.0222 172.174 90.9806 172.104 90.8975C171.921 90.7036 171.935 90.3851 172.132 90.205C175.174 87.4627 177.895 88.086 178.007 88.1137C178.273 88.1829 178.442 88.4461 178.372 88.7092C178.301 88.9724 178.049 89.1247 177.783 89.0693C177.67 89.0416 175.427 88.5846 172.805 90.9391C172.679 91.0499 172.51 91.0914 172.356 91.0499Z" fill="#2A3047"/>
<path d="M184.149 88.0722C184.009 88.0445 183.882 87.9475 183.812 87.7952C183.7 87.5459 183.812 87.255 184.051 87.1442C187.149 85.7454 189.996 87.3381 190.108 87.4074C190.347 87.5459 190.431 87.8367 190.29 88.0722C190.15 88.3076 189.856 88.3907 189.617 88.2522C189.575 88.2245 187.079 86.8534 184.457 88.0306C184.359 88.086 184.261 88.0999 184.149 88.0722Z" fill="#2A3047"/>
<path d="M182.732 102.199C182.634 102.171 182.55 102.102 182.508 101.991C182.466 101.839 182.55 101.673 182.718 101.631C183.406 101.437 184.808 100.856 184.724 100.274C184.611 99.4569 183.195 95.8559 182.648 94.5401C182.592 94.3878 182.662 94.2216 182.817 94.1662C182.971 94.1108 183.139 94.18 183.195 94.3324C183.279 94.5263 185.158 99.1522 185.299 100.205C185.467 101.451 183.139 102.13 182.873 102.199C182.817 102.213 182.775 102.213 182.732 102.199Z" fill="#2A3047"/>
<path d="M178.259 95.4265C178.484 96.8115 178.091 98.0165 177.39 98.1273C176.675 98.2381 175.918 97.2132 175.679 95.842C175.455 94.457 175.848 93.2521 176.549 93.1413C177.264 93.0305 178.035 94.0554 178.259 95.4265Z" fill="#30313C"/>
<path d="M188.676 96.2879C189.387 96.1724 189.777 94.9592 189.547 93.578C189.317 92.1968 188.554 91.1707 187.844 91.2862C187.133 91.4016 186.743 92.6149 186.973 93.9961C187.203 95.3773 187.966 96.4033 188.676 96.2879Z" fill="#30313C"/>
<path d="M230.198 195.451L230.114 195.105L216.989 136.824C216.961 136.699 216.919 136.533 216.877 136.409C215.516 131.492 210.384 128.597 205.406 129.927C200.428 131.27 197.498 136.339 198.844 141.256L212.109 189.385L157.478 190.548C154.015 190.631 151.168 193.388 151.098 196.85C151.014 200.409 153.875 203.36 157.478 203.429L222.415 204.814C223.018 204.828 223.663 204.772 224.266 204.634C228.487 203.692 231.123 199.592 230.198 195.451Z" fill="#F69D85"/>
<path d="M194.189 125.467C194.189 125.467 220.55 122.005 229.412 152.198C234.054 167.987 240.63 197.723 232.203 207.085C220.032 220.617 166.256 205.423 166.256 205.423L168.346 185.784L205.266 187.266C205.252 187.252 189.575 142.904 194.189 125.467Z" fill="#EB455F"/>
<path d="M204.733 187.197C204.733 187.197 211.099 182.308 217.76 182.501C224.421 182.695 226.987 184.274 228.683 186.504C230.366 188.748 219.933 194.717 215.502 194.87C211.071 195.022 205.939 193.415 204.733 187.197Z" fill="#F69D85"/>
<path d="M205.252 185.396C208.968 182.28 213.301 179.884 217.956 178.443C218.559 178.291 219.513 178 220.13 177.903C221.308 177.515 222.99 177.515 223.271 179.025C223.579 180.396 222.247 181.047 221.139 181.338C216.68 183.042 212.726 186.005 209.571 189.523C206.795 193.401 201.452 188.305 205.252 185.396Z" fill="#F69D85"/>
<path d="M217.844 182.446C222.892 182.086 227.926 180.77 232.455 178.513C234.138 177.64 235.652 180.133 234.11 181.186C232.694 182.224 231.207 183.208 229.665 184.039C226.089 185.964 222.261 187.529 218.279 188.402C213.82 189.177 213.329 182.294 217.844 182.446Z" fill="#F69D85"/>
<path d="M220.466 183.997C224.112 184.274 227.842 183.845 231.362 182.875C233.17 182.709 235.793 180.175 237.055 182.418C238.148 185.839 225.402 189.246 222.668 189.648C214.437 191.878 215.082 182.889 220.466 183.997Z" fill="#F69D85"/>
<path d="M219.499 187.21C223.691 187.737 228.01 187.529 232.119 186.601C232.652 186.462 233.493 186.255 234.012 186.075C235.063 185.59 236.62 185.341 237.069 186.726C237.714 188.678 234.587 189.343 233.311 190.077C228.824 191.919 223.986 192.958 219.12 193.138C214.381 193.484 214.843 186.227 219.499 187.21Z" fill="#F69D85"/>
<path d="M214.647 190.34C220.677 192.681 227.646 192.487 233.661 190.147C235.484 189.302 236.858 192.086 235.063 192.972C233.661 193.706 232.063 194.495 230.562 195.008C224.855 197.016 218.489 197.432 212.6 195.922C207.033 194.994 210.02 187.224 214.647 190.34Z" fill="#F69D85"/>
<path d="M232.147 182.778C232.189 182.917 232.133 183.069 231.993 183.125C228.179 185.008 224.168 185.618 224.126 185.618C223.972 185.645 223.818 185.535 223.79 185.368C223.762 185.202 223.874 185.064 224.042 185.036C224.084 185.036 227.996 184.44 231.726 182.598C231.866 182.529 232.049 182.585 232.119 182.723C232.133 182.751 232.133 182.765 232.147 182.778Z" fill="#AF5945"/>
<path d="M232.974 186.393C233.016 186.532 232.96 186.684 232.82 186.74C232.68 186.809 229.426 188.36 226.159 188.859C226.005 188.886 225.851 188.776 225.823 188.609C225.795 188.457 225.907 188.305 226.075 188.277C229.244 187.806 232.525 186.227 232.567 186.213C232.708 186.144 232.89 186.199 232.96 186.352C232.96 186.366 232.974 186.38 232.974 186.393Z" fill="#AF5945"/>
<path d="M230.576 191.158C230.632 191.31 230.534 191.476 230.38 191.518C230.24 191.559 226.86 192.626 224.098 192.917C223.93 192.931 223.79 192.82 223.776 192.654C223.762 192.487 223.874 192.349 224.042 192.335C226.748 192.058 230.17 190.978 230.212 190.964C230.366 190.908 230.534 190.992 230.576 191.158Z" fill="#AF5945"/>
<path d="M217.466 189.468C217.157 185.922 214.002 183.291 210.412 183.595L150.944 188.581L166.621 141.713C166.663 141.588 166.705 141.436 166.747 141.311C168.135 136.409 165.247 131.312 160.269 129.941C155.305 128.569 150.145 131.423 148.757 136.339L132.084 195.105L131.986 195.465C131.72 196.407 131.636 197.432 131.762 198.457C132.295 202.681 136.193 205.686 140.484 205.16L211.773 196.407C215.236 195.977 217.774 192.93 217.466 189.468Z" fill="#F69D85"/>
<path d="M170.281 125.578C170.281 125.578 145.784 120.62 133.192 150.425C125.844 167.807 120.249 194.315 127.962 206.407C133.444 215.007 163.887 219.19 198.872 203.29C198.872 203.29 202.279 191.435 194.399 181.643L159.596 182.211C159.596 182.211 171.543 143.292 170.281 125.578Z" fill="#EB455F"/>
<path d="M192.436 206.254C192.422 206.254 192.422 206.254 192.408 206.254C192.268 206.24 192.169 206.116 192.183 205.977C193.824 190.742 187.612 181.975 187.542 181.892C187.458 181.781 187.486 181.615 187.598 181.532C187.71 181.449 187.879 181.477 187.963 181.587C188.033 181.684 189.589 183.859 190.963 187.972C192.225 191.767 193.558 197.972 192.688 206.019C192.674 206.157 192.562 206.254 192.436 206.254Z" fill="#C92847"/>
<path d="M207.552 213.013C203.247 213.013 199.405 212.708 196.264 212.321C188.145 211.323 182.803 209.564 182.761 209.551C182.648 209.509 182.578 209.412 182.592 209.301C182.606 209.19 182.676 209.093 182.789 209.066C191.02 206.891 197.806 203.553 198.676 203.124C198.816 202.667 199.391 200.617 199.349 198.083C199.349 197.944 199.461 197.833 199.601 197.82C199.741 197.82 199.854 197.93 199.854 198.069C199.896 201.047 199.153 203.29 199.124 203.373C199.11 203.443 199.054 203.484 198.998 203.512C198.928 203.553 192.212 206.974 183.756 209.315C185.551 209.841 190.122 211.046 196.334 211.808C203.78 212.722 215.152 213.193 227.127 210.16C227.267 210.118 227.407 210.201 227.435 210.34C227.463 210.478 227.393 210.617 227.253 210.645C220.256 212.417 213.469 213.013 207.552 213.013Z" fill="#C92847"/>
<path d="M196.558 185.091C196.474 185.091 196.376 185.05 196.334 184.967C196.32 184.939 195.142 182.889 194.287 181.906C192.155 181.934 162.877 182.377 151.954 182.765C151.813 182.765 151.701 182.668 151.687 182.529C151.673 182.335 150.285 162.751 153.664 146.201C153.692 146.062 153.833 145.979 153.973 146.007C154.113 146.034 154.197 146.173 154.169 146.311C151.014 161.796 152.038 179.953 152.192 182.266C163.676 181.864 194.105 181.421 194.413 181.421C194.483 181.421 194.553 181.449 194.609 181.504C195.493 182.501 196.741 184.648 196.797 184.745C196.867 184.87 196.825 185.022 196.699 185.091C196.643 185.078 196.6 185.091 196.558 185.091Z" fill="#C92847"/>
<path d="M209.08 182.82H209.066C208.926 182.806 208.814 182.695 208.828 182.543C209.908 167.017 206.164 145.577 206.122 145.356C206.094 145.217 206.192 145.093 206.332 145.065C206.472 145.037 206.598 145.134 206.626 145.273C206.668 145.494 210.426 166.989 209.347 182.585C209.333 182.723 209.22 182.82 209.08 182.82Z" fill="#C92847"/>
<path d="M155.109 213.927C154.099 213.927 153.146 213.913 152.234 213.886C143.751 213.65 137.819 212.445 137.763 212.431C137.623 212.404 137.539 212.265 137.567 212.127C137.595 211.988 137.735 211.905 137.875 211.933C137.932 211.947 143.821 213.138 152.262 213.373C160.045 213.595 171.655 213.013 182.747 209.052C182.887 209.01 183.027 209.066 183.069 209.204C183.111 209.343 183.055 209.481 182.915 209.523C173.043 213.068 162.765 213.927 155.109 213.927Z" fill="#C92847"/>
<path d="M182.676 145.577C182.592 145.577 182.508 145.536 182.452 145.453L170.056 125.703C169.986 125.578 170.014 125.426 170.141 125.356C170.267 125.287 170.421 125.315 170.491 125.439L182.662 144.829L193.964 125.342C194.034 125.218 194.189 125.176 194.315 125.246C194.441 125.315 194.483 125.467 194.413 125.592L182.901 145.453C182.859 145.536 182.775 145.577 182.676 145.577Z" fill="#C92847"/>
<path d="M190.206 69.4162C190.206 69.4162 183.167 61.7433 170.912 64.4163C158.656 67.0894 152.445 79.5682 152.094 89.748C151.743 99.9277 134.033 111.756 141.507 126.201C146.471 135.799 168.346 138.098 174.221 131.644C183.069 121.922 168.177 113.889 166.411 99.2491C165.359 90.5374 171.837 85.3714 177.488 83.5155C183.139 81.6596 190.108 75.1639 190.108 75.1639L190.206 69.4162Z" fill="#2A3047"/>
<path d="M181.933 247.042C175.749 247.042 169.566 246.793 163.452 246.294C146.611 244.909 136.038 242.07 135.926 242.043C135.786 242.001 135.716 241.862 135.744 241.724C135.786 241.585 135.926 241.516 136.066 241.544C136.165 241.572 146.709 244.411 163.508 245.782C179.002 247.056 203.149 247.306 230.17 241.295C230.31 241.267 230.45 241.35 230.478 241.489C230.506 241.627 230.422 241.766 230.282 241.793C218.321 244.452 205.925 246.128 193.417 246.752C189.603 246.945 185.761 247.042 181.933 247.042Z" fill="#C92847"/>
<path d="M187.223 154.806L185.789 164.229L203.095 166.798L204.528 157.375L187.223 154.806Z" fill="#F1F3F2"/>
<path d="M191.695 159.687L192.641 159.828C192.644 159.85 192.644 159.877 192.643 159.908C192.642 159.939 192.639 159.97 192.634 160C192.616 160.124 192.579 160.238 192.524 160.342C192.47 160.446 192.396 160.536 192.302 160.61C192.201 160.689 192.087 160.744 191.959 160.777C191.831 160.809 191.69 160.814 191.535 160.791C191.395 160.77 191.266 160.725 191.15 160.657C191.034 160.588 190.936 160.502 190.858 160.398C190.78 160.295 190.724 160.178 190.688 160.048C190.653 159.916 190.647 159.777 190.669 159.631C190.691 159.486 190.738 159.356 190.811 159.242C190.884 159.126 190.973 159.03 191.078 158.953C191.184 158.877 191.302 158.823 191.434 158.791C191.566 158.759 191.702 158.754 191.842 158.775C191.998 158.798 192.133 158.845 192.248 158.918C192.363 158.99 192.458 159.08 192.532 159.188L192.244 159.397C192.191 159.321 192.128 159.26 192.056 159.214C191.984 159.167 191.894 159.135 191.787 159.119C191.698 159.106 191.612 159.11 191.528 159.131C191.445 159.149 191.369 159.183 191.301 159.232C191.232 159.28 191.174 159.344 191.126 159.421C191.079 159.497 191.048 159.585 191.033 159.686C191.018 159.786 191.021 159.88 191.042 159.968C191.066 160.054 191.103 160.131 191.154 160.197C191.206 160.263 191.269 160.319 191.344 160.363C191.418 160.405 191.5 160.433 191.59 160.446C191.693 160.462 191.781 160.46 191.856 160.442C191.932 160.422 191.999 160.392 192.057 160.353C192.098 160.326 192.134 160.29 192.167 160.245C192.202 160.199 192.231 160.146 192.254 160.087L191.647 159.997L191.695 159.687ZM193.577 159.655C193.679 159.67 193.77 159.702 193.849 159.751C193.93 159.798 193.997 159.857 194.048 159.929C194.102 160 194.139 160.08 194.16 160.172C194.183 160.263 194.187 160.36 194.171 160.463C194.156 160.565 194.123 160.657 194.074 160.738C194.027 160.819 193.967 160.886 193.895 160.94C193.824 160.992 193.743 161.03 193.651 161.053C193.561 161.074 193.465 161.078 193.363 161.062C193.26 161.047 193.169 161.016 193.087 160.969C193.008 160.921 192.942 160.861 192.888 160.791C192.837 160.719 192.8 160.637 192.777 160.545C192.756 160.454 192.753 160.357 192.769 160.255C192.784 160.152 192.816 160.06 192.863 159.979C192.912 159.898 192.972 159.832 193.042 159.78C193.115 159.726 193.196 159.689 193.286 159.667C193.377 159.644 193.474 159.64 193.577 159.655ZM193.413 160.736C193.457 160.743 193.502 160.741 193.546 160.731C193.592 160.72 193.633 160.7 193.67 160.672C193.708 160.645 193.739 160.609 193.764 160.565C193.791 160.521 193.809 160.47 193.818 160.41C193.827 160.351 193.825 160.297 193.812 160.247C193.802 160.198 193.782 160.154 193.755 160.117C193.727 160.08 193.693 160.05 193.653 160.027C193.614 160.003 193.572 159.988 193.527 159.981C193.481 159.974 193.435 159.977 193.391 159.989C193.347 159.999 193.307 160.017 193.269 160.045C193.232 160.073 193.2 160.108 193.173 160.152C193.148 160.196 193.131 160.248 193.122 160.307C193.113 160.366 193.114 160.421 193.125 160.47C193.137 160.52 193.157 160.563 193.185 160.6C193.212 160.638 193.245 160.668 193.284 160.692C193.323 160.715 193.366 160.729 193.413 160.736ZM195.131 159.886C195.234 159.901 195.324 159.933 195.403 159.981C195.484 160.028 195.551 160.088 195.602 160.16C195.656 160.23 195.693 160.311 195.714 160.402C195.737 160.494 195.741 160.591 195.725 160.693C195.71 160.796 195.677 160.888 195.628 160.969C195.581 161.05 195.521 161.117 195.449 161.171C195.378 161.223 195.297 161.26 195.205 161.283C195.116 161.305 195.019 161.308 194.917 161.293C194.814 161.278 194.723 161.247 194.642 161.2C194.563 161.151 194.496 161.092 194.443 161.021C194.391 160.949 194.354 160.868 194.331 160.776C194.31 160.685 194.307 160.588 194.323 160.485C194.338 160.383 194.37 160.291 194.417 160.21C194.466 160.129 194.526 160.062 194.596 160.01C194.669 159.957 194.75 159.919 194.84 159.898C194.931 159.875 195.029 159.871 195.131 159.886ZM194.967 160.967C195.012 160.973 195.056 160.972 195.1 160.962C195.146 160.95 195.187 160.931 195.225 160.903C195.262 160.876 195.293 160.84 195.318 160.796C195.345 160.752 195.363 160.7 195.372 160.641C195.381 160.582 195.379 160.527 195.366 160.478C195.356 160.428 195.336 160.385 195.309 160.348C195.282 160.311 195.247 160.281 195.207 160.258C195.168 160.234 195.126 160.219 195.081 160.212C195.035 160.205 194.989 160.207 194.945 160.219C194.901 160.229 194.861 160.248 194.824 160.276C194.786 160.303 194.754 160.339 194.727 160.383C194.702 160.427 194.685 160.478 194.676 160.538C194.667 160.597 194.668 160.651 194.679 160.701C194.692 160.75 194.712 160.794 194.739 160.831C194.766 160.868 194.8 160.899 194.838 160.923C194.877 160.945 194.92 160.96 194.967 160.967ZM196.685 160.116C196.788 160.132 196.878 160.164 196.957 160.212C197.039 160.259 197.105 160.318 197.156 160.39C197.21 160.461 197.247 160.542 197.268 160.633C197.291 160.725 197.295 160.822 197.279 160.924C197.264 161.027 197.231 161.118 197.182 161.199C197.135 161.28 197.075 161.348 197.003 161.401C196.932 161.453 196.851 161.491 196.759 161.514C196.67 161.536 196.574 161.539 196.471 161.524C196.369 161.508 196.277 161.477 196.196 161.43C196.117 161.382 196.05 161.322 195.997 161.252C195.945 161.18 195.908 161.098 195.885 161.007C195.864 160.915 195.861 160.818 195.877 160.716C195.892 160.614 195.924 160.522 195.971 160.441C196.02 160.36 196.08 160.293 196.15 160.241C196.223 160.188 196.304 160.15 196.394 160.128C196.486 160.105 196.583 160.101 196.685 160.116ZM196.521 161.197C196.566 161.204 196.61 161.202 196.654 161.192C196.7 161.181 196.741 161.161 196.779 161.134C196.816 161.106 196.847 161.07 196.872 161.026C196.899 160.983 196.917 160.931 196.926 160.872C196.935 160.812 196.933 160.758 196.921 160.708C196.91 160.659 196.891 160.616 196.863 160.578C196.836 160.541 196.802 160.511 196.761 160.489C196.722 160.465 196.68 160.449 196.636 160.443C196.589 160.436 196.543 160.438 196.499 160.45C196.455 160.46 196.415 160.479 196.378 160.506C196.34 160.534 196.308 160.57 196.281 160.613C196.256 160.657 196.239 160.709 196.23 160.768C196.221 160.828 196.222 160.882 196.233 160.931C196.246 160.981 196.266 161.025 196.293 161.062C196.321 161.099 196.354 161.129 196.392 161.154C196.431 161.176 196.474 161.191 196.521 161.197ZM197.886 160.515L197.908 160.518C197.959 160.458 198.023 160.414 198.099 160.387C198.175 160.358 198.258 160.35 198.348 160.363C198.43 160.375 198.501 160.4 198.56 160.436C198.619 160.472 198.664 160.519 198.696 160.575C198.73 160.629 198.752 160.693 198.761 160.766C198.772 160.838 198.771 160.916 198.758 161L198.637 161.801L198.283 161.748L198.398 160.991C198.413 160.896 198.402 160.822 198.366 160.771C198.331 160.718 198.274 160.686 198.193 160.674C198.144 160.667 198.1 160.671 198.059 160.687C198.02 160.701 197.984 160.725 197.951 160.756C197.921 160.787 197.895 160.825 197.873 160.872C197.854 160.917 197.84 160.966 197.831 161.02L197.733 161.667L197.38 161.614L197.581 160.293L197.912 160.343L197.886 160.515ZM198.698 162.075C198.711 162.086 198.723 162.094 198.735 162.1C198.749 162.105 198.766 162.11 198.786 162.112C198.866 162.125 198.915 162.077 198.931 161.971L199.151 160.527L199.504 160.579L199.283 162.035C199.27 162.121 199.247 162.192 199.215 162.248C199.182 162.305 199.143 162.35 199.098 162.382C199.052 162.414 199.002 162.434 198.948 162.443C198.893 162.453 198.836 162.454 198.776 162.445C198.731 162.438 198.692 162.428 198.657 162.416C198.621 162.405 198.59 162.391 198.561 162.374L198.698 162.075ZM199.355 160.361C199.325 160.357 199.296 160.347 199.269 160.332C199.244 160.315 199.222 160.295 199.203 160.272C199.187 160.248 199.174 160.221 199.166 160.192C199.159 160.164 199.158 160.133 199.163 160.101C199.168 160.069 199.178 160.04 199.193 160.015C199.21 159.989 199.229 159.968 199.252 159.952C199.277 159.933 199.304 159.921 199.332 159.914C199.363 159.906 199.394 159.904 199.424 159.908C199.487 159.918 199.538 159.948 199.576 160C199.614 160.049 199.629 160.106 199.619 160.169C199.61 160.232 199.579 160.282 199.527 160.32C199.476 160.357 199.418 160.37 199.355 160.361Z" fill="black"/>
<path d="M197.802 153.357L194.821 152.914L193.921 158.831L196.902 159.273L197.802 153.357Z" fill="#F76C59"/>
</g>
</g>
<defs>
<filter id="filter0_d_95_851" x="-4" y="0" width="383" height="285" filterUnits="userSpaceOnUse" color-interpolation-filters="sRGB">
<feFlood flood-opacity="0" result="BackgroundImageFix"/>
<feColorMatrix in="SourceAlpha" type="matrix" values="0 0 0 0 0 0 0 0 0 0 0 0 0 0 0 0 0 0 127 0" result="hardAlpha"/>
<feOffset dy="4"/>
<feGaussianBlur stdDeviation="2"/>
<feComposite in2="hardAlpha" operator="out"/>
<feColorMatrix type="matrix" values="0 0 0 0 0 0 0 0 0 0 0 0 0 0 0 0 0 0 0.25 0"/>
<feBlend mode="normal" in2="BackgroundImageFix" result="effect1_dropShadow_95_851"/>
<feBlend mode="normal" in="SourceGraphic" in2="effect1_dropShadow_95_851" result="shape"/>
</filter>
<clipPath id="clip0_95_851">
<rect width="375" height="277" fill="white"/>
</clipPath>
<clipPath id="clip1_95_851">
<rect width="631" height="277" fill="white" transform="translate(-128)"/>
</clipPath>
</defs>
</svg>
