<svg width="24" height="24" viewBox="0 0 24 24" fill="none" xmlns="http://www.w3.org/2000/svg">
<mask id="mask0_97_37" style="mask-type:alpha" maskUnits="userSpaceOnUse" x="0" y="0" width="24" height="24">
<rect width="24" height="24" fill="#D9D9D9"/>
</mask>
<g mask="url(#mask0_97_37)">
<path d="M6 22C5.45 22 4.97933 21.8043 4.588 21.413C4.196 21.021 4 20.55 4 20V10C4 9.45 4.196 8.979 4.588 8.587C4.97933 8.19567 5.45 8 6 8H7V6C7 4.61667 7.48767 3.43733 8.463 2.462C9.43767 1.48733 10.6167 1 12 1C13.3833 1 14.5627 1.48733 15.538 2.462C16.5127 3.43733 17 4.61667 17 6V8H18C18.55 8 19.021 8.19567 19.413 8.587C19.8043 8.979 20 9.45 20 10V20C20 20.55 19.8043 21.021 19.413 21.413C19.021 21.8043 18.55 22 18 22H6ZM9 8H15V6C15 5.16667 14.7083 4.45833 14.125 3.875C13.5417 3.29167 12.8333 3 12 3C11.1667 3 10.4583 3.29167 9.875 3.875C9.29167 4.45833 9 5.16667 9 6V8ZM12 19C12.2833 19 12.521 18.904 12.713 18.712C12.9043 18.5207 13 18.2833 13 18V16H15C15.2833 16 15.521 15.904 15.713 15.712C15.9043 15.5207 16 15.2833 16 15C16 14.7167 15.9043 14.479 15.713 14.287C15.521 14.0957 15.2833 14 15 14H13V12C13 11.7167 12.9043 11.479 12.713 11.287C12.521 11.0957 12.2833 11 12 11C11.7167 11 11.4793 11.0957 11.288 11.287C11.096 11.479 11 11.7167 11 12V14H9C8.71667 14 8.47933 14.0957 8.288 14.287C8.096 14.479 8 14.7167 8 15C8 15.2833 8.096 15.5207 8.288 15.712C8.47933 15.904 8.71667 16 9 16H11V18C11 18.2833 11.096 18.5207 11.288 18.712C11.4793 18.904 11.7167 19 12 19Z" fill="#ffffff"/>
</g>
</svg>
