<svg width="14" height="18" viewBox="0 0 14 18" fill="none" xmlns="http://www.w3.org/2000/svg">
<path d="M5.75004 11.9167H8.25004V9.83332H10.3334V7.33332H8.25004V5.24999H5.75004V7.33332H3.66671V9.83332H5.75004V11.9167ZM7.00004 17.3333C5.06949 16.8472 3.47587 15.7394 2.21921 14.01C0.961985 12.2811 0.333374 10.3611 0.333374 8.24999V3.16666L7.00004 0.666656L13.6667 3.16666V8.24999C13.6667 10.3611 13.0384 12.2811 11.7817 14.01C10.5245 15.7394 8.9306 16.8472 7.00004 17.3333ZM7.00004 15.5833C8.44449 15.125 9.63893 14.2083 10.5834 12.8333C11.5278 11.4583 12 9.93055 12 8.24999V4.31249L7.00004 2.43749L2.00004 4.31249V8.24999C2.00004 9.93055 2.47226 11.4583 3.41671 12.8333C4.36115 14.2083 5.5556 15.125 7.00004 15.5833Z" fill="white"/>
</svg>
