<svg width="375" height="363" viewBox="0 0 375 363" fill="none" xmlns="http://www.w3.org/2000/svg">
<path d="M287.077 163.843C299.078 179.251 311.669 180.015 328.318 184.503C314.072 166.342 287.077 163.843 287.077 163.843Z" fill="#878787"/>
<path d="M185.174 277.811L184.569 288.444C185.11 288.444 185.651 288.428 186.208 288.428L185.269 277.89C185.238 277.859 185.206 277.843 185.174 277.811Z" fill="#B5B5B5"/>
<path d="M234.502 275.821C232.289 259.665 221.577 248.093 221.577 248.093C220.988 248.205 220.383 248.284 219.778 248.396C219.826 248.618 219.683 248.841 219.444 248.889C209.4 251.038 200.884 251.611 191.127 251.611C186.177 251.611 180.908 251.468 174.971 251.292C172.122 251.213 169.113 251.133 165.914 251.054C165.675 251.054 165.484 250.847 165.5 250.608V250.592C151.254 249.701 141.751 248.093 141.751 248.093C140 252.884 138.504 257.277 137.231 261.209C140.367 261.018 143.47 260.907 146.192 260.843C152.957 260.668 174.079 263.167 171.517 271.03C167.219 270.728 161.855 267.878 157.35 267.735C168.095 270.409 173.554 273.863 172.36 279.227C171.803 281.265 164.752 275.264 162.046 273.831C158.799 272.128 152.225 270.887 149.535 271.301C155.456 271.03 167.888 276.235 167.744 282.284C166.328 285.069 161.712 279.8 158.544 278.432C156.539 277.556 153.482 276.442 149.121 276.633C156.204 277.556 162.237 279.785 161.855 284.926C158.942 285.897 154.851 281.551 149.36 281.663C143.996 281.774 139.555 283.668 134.191 284.019C133.172 284.082 132.121 284.162 131.039 284.225C130.052 292.439 127.155 246.82 126.312 286.995C126.073 298.265 125.993 310.569 126.168 323.828H182.484L184.951 288.65L185.253 288.778L189.296 323.828C189.296 323.828 239.404 329.717 238.847 316.745C237.542 284.878 237.144 295.145 234.502 275.821Z" fill="#162942"/>
<path d="M196.65 131.371C196.411 131.308 196.189 131.451 196.125 131.69C194.804 136.958 191.302 139.967 185.715 140.651C182.07 141.097 174.43 140.237 171.66 133.87C171.58 133.679 171.358 133.6 171.151 133.648C171.135 133.648 171.103 133.632 171.087 133.648C170.864 133.743 170.769 133.998 170.864 134.221C173.427 140.11 179.81 141.606 183.996 141.606C184.664 141.606 185.269 141.574 185.811 141.511C191.795 140.794 195.552 137.563 196.969 131.913C197.016 131.674 196.889 131.435 196.65 131.371Z" fill="#272727"/>
<path d="M116.124 237.89C116.029 237.731 115.933 237.572 115.822 237.413C113.148 233.21 110.585 229.151 108.038 224.583C108.023 224.551 108.007 224.535 107.991 224.504C107.752 224.663 107.497 224.806 107.259 224.949C109.901 229.725 112.591 233.959 115.392 238.352C117.939 242.347 120.565 246.485 123.399 251.372L123.781 251.595L123.988 251.531C124.195 251.42 124.258 251.149 124.147 250.942L116.124 237.89Z" fill="#BABABA"/>
<path d="M171.167 133.648C171.023 133.202 170.976 133.361 170.976 133.727C171.007 133.695 171.055 133.663 171.087 133.648C171.119 133.632 171.135 133.648 171.167 133.648Z" fill="#EB455F"/>
<path d="M170.864 134.221C170.912 134.332 170.976 134.443 171.023 134.555C170.992 134.252 170.976 133.95 170.976 133.727C170.848 133.854 170.8 134.045 170.864 134.221Z" fill="#EB455F"/>
<path d="M171.326 135.144L171.103 135.128C171.183 135.685 171.294 135.956 171.326 135.144Z" fill="#EB455F"/>
<path d="M227.068 138.932L219.985 136.449L197.08 128.411C197.08 128.411 197.096 129.652 196.666 131.371C196.889 131.435 197.032 131.658 196.969 131.897C195.552 137.547 191.811 140.779 185.811 141.495C185.285 141.558 184.664 141.606 183.996 141.606C179.889 141.606 173.682 140.174 171.023 134.555C171.039 134.762 171.071 134.969 171.103 135.144L171.326 135.16C171.294 135.971 171.183 135.701 171.103 135.144L146.224 134.173L141.019 138.852C140.685 138.916 138.059 140.794 137.724 140.874C121.871 142.752 113.084 157.11 101.337 165.976C93.9198 171.563 83.0801 176.258 75.6626 181.766C76.7609 185.315 76.6495 184.615 78.098 188.085C78.6233 189.326 79.1485 190.568 79.7216 191.794C83.0324 198.956 87.0754 205.785 91.8824 211.945C91.9938 212.088 92.1052 212.215 92.2167 212.359C96.1642 217.357 92.0734 207.822 97.3102 211.483C97.7241 211.244 98.1379 210.974 98.5677 210.703C98.8064 210.56 99.0611 210.401 99.2999 210.258C100.287 209.621 101.29 208.968 102.276 208.3C107.036 205.037 112.145 201.615 117.207 197.969C113.928 190.52 119.499 197.619 116.491 190.17C116.395 189.947 116.507 189.692 116.729 189.613C116.952 189.533 117.207 189.629 117.286 189.852C120.279 197.237 123.367 204.32 126.614 211.69C126.948 212.454 127.283 213.218 127.633 213.998C130.084 219.569 132.615 225.315 135.4 231.826C135.496 232.048 135.4 232.303 135.178 232.399L135.114 232.415L141.751 248.109C141.751 248.109 151.254 249.717 165.5 250.608C165.516 250.385 165.723 250.21 165.93 250.21C169.129 250.29 172.138 250.369 174.987 250.449C192.575 250.942 204.211 251.277 219.253 248.061C219.492 248.014 219.714 248.157 219.762 248.396C219.762 248.396 219.762 248.396 219.762 248.411C220.367 248.316 220.956 248.22 221.561 248.109L224.633 236.824C224.41 236.76 224.267 236.553 224.33 236.314C224.983 233.465 225.827 230.393 226.638 227.416C228.342 221.177 230.108 214.714 230.347 209.844C230.745 201.806 230.061 193.767 229.392 186C229.281 184.615 229.153 183.246 229.042 181.861C229.026 181.622 229.201 181.415 229.44 181.4C229.663 181.384 229.886 181.559 229.902 181.797C230.013 183.166 230.14 184.551 230.252 185.92C230.761 191.905 231.286 198.033 231.318 204.225C231.334 206.103 231.302 207.997 231.207 209.892C231.127 211.531 230.872 213.346 230.522 215.24C230.14 217.309 229.631 219.474 229.058 221.702V221.718L243.813 238.766C246.551 236.664 249.018 234.436 251.263 232.128C255.194 228.101 258.394 223.867 261.004 219.681C267.275 209.621 270.109 199.864 271.334 194.197C271.35 194.133 271.35 194.086 271.366 194.022C272.003 190.998 272.178 189.167 272.178 189.167L240.869 149.899C235.918 141.829 227.068 138.932 227.068 138.932Z" fill="#EB455F"/>
<path d="M219.778 248.38C219.73 248.141 219.508 247.998 219.269 248.045C204.243 251.261 192.607 250.926 175.003 250.433C172.153 250.353 169.145 250.274 165.946 250.194C165.739 250.194 165.532 250.369 165.516 250.592V250.608C165.516 250.847 165.707 251.038 165.93 251.054C169.129 251.133 172.138 251.213 174.987 251.292C180.924 251.468 186.193 251.611 191.143 251.611C200.9 251.611 209.416 251.038 219.46 248.889C219.683 248.841 219.826 248.618 219.778 248.38Z" fill="#235168"/>
<path d="M229.917 181.782C229.902 181.543 229.679 181.368 229.456 181.384C229.217 181.4 229.042 181.606 229.058 181.845C229.169 183.214 229.281 184.599 229.408 185.984C230.077 193.751 230.745 201.79 230.363 209.828C230.124 214.714 228.358 221.161 226.654 227.401C225.843 230.377 224.999 233.449 224.346 236.298C224.299 236.521 224.426 236.744 224.649 236.808C224.649 236.808 224.649 236.824 224.665 236.824L224.76 236.84C224.951 236.84 225.142 236.712 225.174 236.505L227.466 227.639C228.007 225.666 228.549 223.66 229.042 221.702C229.615 219.474 230.124 217.293 230.506 215.224C230.857 213.314 231.111 211.515 231.191 209.876C231.589 201.774 230.904 193.72 230.236 185.904C230.14 184.535 230.029 183.15 229.917 181.782Z" fill="#235168"/>
<path d="M182.93 251.611C182.93 251.802 182.786 251.945 182.595 251.945C182.532 251.945 182.468 251.913 182.42 251.866C182.388 251.85 182.372 251.834 182.341 251.802C182.293 251.754 182.261 251.674 182.261 251.611V283.286C182.261 283.095 182.341 283.891 182.532 283.891H187.657V283.541L182.93 282.538V251.611Z" fill="#C55137"/>
<path d="M188.039 255.877C187.848 255.877 187.705 256.02 187.705 256.211L187.641 283.541L188.039 283.621C188.214 283.621 188.373 283.477 188.373 283.286V256.211C188.373 256.036 188.23 255.877 188.039 255.877Z" fill="#C55137"/>
<path d="M219.285 255.272C175.13 263.215 143.932 255.367 143.614 255.272C143.375 255.208 143.152 255.351 143.088 255.574C143.025 255.797 143.168 256.036 143.391 256.1C143.598 256.147 157.541 259.665 179.921 259.665C191.175 259.665 204.577 258.774 219.428 256.1C219.667 256.052 219.826 255.829 219.778 255.606C219.746 255.383 219.523 255.224 219.285 255.272Z" fill="#C55137"/>
<path d="M221.816 90.8936C220.399 88.7766 217.995 87.6305 216.069 85.991C215.703 85.6727 215.353 85.3384 215.019 84.9882C213.045 82.9349 212.042 80.1653 211.804 77.332C211.453 73.0343 208.763 64.5822 194.167 57.5149V57.5309C188.15 55.0159 181.163 54.4588 174.828 55.4934C168.652 56.5122 163.049 59.425 158.767 63.6909C155.775 66.6674 153.419 70.3125 151.938 74.4351C150.028 79.7674 150.697 86.0706 147.943 91.0687C145.317 95.8279 137.836 98.7567 140.462 105.315C142.229 109.756 144.76 111.666 142.293 116.743C141.353 118.685 140.128 120.643 140.16 122.808C140.207 125.211 137.692 133.027 144.553 136.322C149.105 138.502 154.294 138.868 159.197 138.852C166.98 138.821 173.554 125.944 181.29 125.195C188.405 124.511 188.325 135.16 195.647 135.685C198.863 135.924 210.053 136.497 213.268 136.258C217.215 135.971 221.354 128.188 221.927 124.145C222.357 121.152 220.001 118.558 219.157 115.645C217.948 111.522 219.858 107.209 221.434 103.23C223.009 99.2661 224.187 94.4272 221.816 90.8936Z" fill="#272727"/>
<path d="M200.248 78.4144C200.232 78.2712 200.216 78.1438 200.184 78.0165C200.168 78.1438 200.2 78.2871 200.248 78.4144Z" fill="#4B4B4B"/>
<path d="M215.019 116.107C213.586 114.101 211.66 112.414 210.514 110.217C209.925 109.087 209.655 107.861 209.718 106.604C209.782 105.267 210.18 103.978 210.61 102.72C211.024 101.479 211.485 100.237 211.772 98.9477C212.026 97.8017 212.106 96.6397 212.026 95.4778C211.851 93.2493 211.024 91.0209 209.718 89.2063C209.066 88.2831 208.286 87.4714 207.394 86.7869C206.519 86.1025 205.644 85.4499 204.784 84.7336C203.065 83.301 201.489 81.7093 200.645 79.5923C200.55 79.3376 200.454 79.0829 200.375 78.8123C200.343 78.7168 200.295 78.5736 200.263 78.4462C200.279 78.5576 200.279 78.6691 200.295 78.7487C200.359 79.0193 200.423 79.2898 200.502 79.5445C200.661 80.038 200.868 80.4996 201.123 80.9612C201.632 81.8844 202.301 82.7121 203.049 83.4602C203.813 84.2401 204.657 84.9564 205.516 85.6249C206.376 86.3094 207.283 86.9302 208.079 87.6942C209.718 89.27 210.944 91.3711 211.422 93.5995C211.66 94.7137 211.772 95.8757 211.708 97.0058C211.628 98.2633 211.31 99.473 210.912 100.667C210.132 103.054 209.002 105.522 209.368 108.1C209.702 110.536 211.39 112.43 212.934 114.228C214.541 116.107 215.958 118.144 216.865 120.452C217.757 122.712 218.123 125.132 217.932 127.551C217.788 129.477 216.754 131.037 215.146 132.072C213.475 133.138 211.469 133.663 209.559 134.125C209.05 134.252 208.54 134.38 208.031 134.507C207.904 134.539 207.936 134.746 208.063 134.73C210.1 134.475 212.17 134.045 214.048 133.186C215.719 132.422 217.247 131.26 217.964 129.525C218.377 128.522 218.457 127.44 218.457 126.373C218.457 125.164 218.33 123.938 218.059 122.744C217.518 120.325 216.435 118.096 215.019 116.107Z" fill="#4B4B4B"/>
<path d="M200.184 77.8891C200.2 77.8255 200.088 77.8414 200.12 77.9051C200.136 77.9369 200.152 77.9846 200.168 78.0324C200.168 77.9846 200.168 77.9369 200.184 77.8891Z" fill="#4B4B4B"/>
<path d="M202.062 87.5828C202.094 87.5828 202.11 87.5987 202.142 87.6146C202.126 87.5987 202.11 87.5669 202.094 87.535C202.078 87.4714 201.983 87.5669 202.062 87.5828Z" fill="#4B4B4B"/>
<path d="M202.158 87.6146C202.221 87.6942 202.333 87.742 202.396 87.8056C202.412 87.8216 202.428 87.8375 202.444 87.8375C202.349 87.7579 202.237 87.6624 202.158 87.6146Z" fill="#4B4B4B"/>
<path d="M208.493 113.974C207.538 112.398 206.392 110.87 205.819 109.103C205.182 107.113 205.548 105.124 206.041 103.15C206.519 101.304 207.044 99.4571 207.012 97.5311C206.997 95.828 206.63 94.1248 205.946 92.5649C205.293 91.0368 204.338 89.5565 203.081 88.4423C202.938 88.315 202.778 88.1717 202.635 88.0444C202.571 87.9807 202.492 87.917 202.428 87.8693C202.492 87.933 202.54 87.9807 202.571 88.0125C202.731 88.1717 202.89 88.315 203.049 88.4901C203.32 88.7925 203.606 89.1108 203.861 89.4292C204.386 90.0977 204.864 90.8299 205.246 91.5939C206.01 93.0902 206.503 94.7297 206.662 96.401C206.742 97.2446 206.726 98.0882 206.63 98.9159C206.519 99.9028 206.264 100.858 206.01 101.813C205.484 103.691 204.88 105.633 205.055 107.607C205.23 109.437 206.105 111.061 207.06 112.589C208.031 114.165 209.018 115.709 209.655 117.46C210.833 120.786 210.96 124.766 208.954 127.822C208.095 129.127 206.901 130.209 205.516 130.942C204.147 131.658 202.635 131.976 201.107 131.881C200.725 131.865 200.343 131.801 199.961 131.722C199.834 131.69 199.786 131.865 199.913 131.913C202.938 133.043 206.344 131.531 208.397 129.254C210.864 126.548 211.39 122.728 210.642 119.242C210.244 117.364 209.48 115.597 208.493 113.974Z" fill="#4B4B4B"/>
<path d="M203.336 116.011C202.906 115.422 202.46 114.849 202.062 114.228C201.68 113.639 201.378 112.987 201.139 112.318C200.677 110.981 200.55 109.517 200.773 108.116C201.012 106.668 201.601 105.315 202.221 103.994C202.842 102.688 203.495 101.399 203.909 100.03C204.306 98.709 204.545 97.2287 204.147 95.8757C204.052 95.5574 203.924 95.2549 203.797 94.9525C203.797 94.9366 203.765 94.9525 203.781 94.9684C204.036 95.621 204.115 96.3373 204.131 97.0377C204.147 97.754 204.068 98.4543 203.909 99.1547C203.59 100.555 202.969 101.861 202.349 103.15C201.744 104.423 201.107 105.681 200.741 107.05C200.375 108.371 200.295 109.756 200.534 111.109C200.773 112.493 201.314 113.767 202.11 114.913C202.524 115.502 202.969 116.075 203.351 116.68C203.702 117.237 203.988 117.826 204.195 118.446C204.991 120.834 204.673 123.604 203.208 125.673C202.508 126.66 201.569 127.472 200.518 128.061C199.452 128.649 198.29 128.968 197.08 129.111C196.794 129.143 196.491 129.175 196.189 129.191C196.029 129.207 195.966 129.461 196.157 129.477C197.382 129.668 198.64 129.398 199.786 128.936C200.932 128.458 201.983 127.726 202.826 126.819C204.593 124.893 205.325 122.251 204.911 119.688C204.673 118.319 204.115 117.109 203.336 116.011Z" fill="#4B4B4B"/>
<path d="M160.072 129.589C158.258 130.178 156.379 130.48 154.485 130.162C152.623 129.843 150.856 129 149.519 127.663C146.829 124.957 146.097 120.643 147.689 117.189C148.548 115.327 149.869 113.624 150.156 111.538C150.426 109.612 149.742 107.734 149.042 105.967C148.341 104.185 147.529 102.338 147.577 100.38C147.625 98.327 148.659 96.5124 149.869 94.9048C151.111 93.2494 152.559 91.7691 153.673 90.0341C154.756 88.3468 155.647 86.3412 155.345 84.3038C155.281 83.8263 155.138 83.3806 154.947 82.9349C154.931 82.919 154.899 82.9349 154.899 82.9509C155.647 85.0201 154.979 87.2485 153.928 89.079C152.862 90.9573 151.334 92.4694 149.997 94.1567C148.771 95.7006 147.609 97.4356 147.291 99.4253C146.972 101.399 147.593 103.293 148.309 105.108C149.01 106.922 149.869 108.801 149.821 110.774C149.774 112.939 148.453 114.722 147.513 116.584C146.638 118.319 146.24 120.213 146.463 122.155C146.67 124.033 147.386 125.832 148.548 127.312C150.936 130.321 155.297 131.626 158.942 130.4C159.372 130.257 159.786 130.034 160.168 129.796C160.263 129.732 160.2 129.541 160.072 129.589Z" fill="#4B4B4B"/>
<path d="M172.265 124.527C170.721 125.753 168.795 126.532 166.837 126.755C164.911 126.978 163.017 126.628 161.266 125.816C159.531 125.004 157.907 123.858 156.618 122.426C155.997 121.741 155.456 120.977 155.074 120.15C154.676 119.306 154.501 118.399 154.485 117.476C154.437 115.502 155.011 113.576 155.297 111.634C155.568 109.772 155.568 107.877 154.501 106.254C153.467 104.662 151.763 103.468 151.143 101.622C150.506 99.7118 151.302 97.8176 152.32 96.1941C153.419 94.4432 154.804 92.8674 155.775 91.0209C156.761 89.1109 157.398 86.9939 157.541 84.8291C157.573 84.272 157.589 83.7149 157.557 83.1737C157.557 83.11 157.462 83.11 157.462 83.1737C157.478 85.4658 157 87.7897 156.077 89.8908C155.631 90.9095 155.074 91.8646 154.437 92.7718C153.849 93.6155 153.212 94.4432 152.623 95.2868C151.556 96.8308 150.474 98.6294 150.649 100.587C150.824 102.609 152.305 103.978 153.514 105.458C154.135 106.206 154.676 107.018 154.931 107.957C155.186 108.88 155.17 109.851 155.074 110.806C154.851 112.828 154.215 114.77 154.103 116.807C154.055 117.746 154.119 118.717 154.422 119.624C154.708 120.484 155.154 121.28 155.695 121.996C156.873 123.572 158.449 124.845 160.168 125.816C161.855 126.755 163.685 127.376 165.627 127.36C167.617 127.36 169.702 126.803 171.326 125.625C171.724 125.339 172.09 125.036 172.44 124.702C172.567 124.591 172.392 124.415 172.265 124.527Z" fill="#4B4B4B"/>
<path d="M162.651 74.6101C157.016 80.5473 159.627 100.794 161.393 106.142C165.389 118.24 172.981 124.925 186.559 122.871C196.045 121.439 207.108 103.102 201.028 78.5258C195.823 57.6104 172.01 64.7414 162.651 74.6101Z" fill="#FABA97"/>
<path d="M196.778 129.7L195.918 123.094L195.138 117.125L194.103 108.992L169.002 111.427L168.572 118.319V118.335L168.286 122.68L168.142 125.1L167.442 136.178C167.442 136.178 164.45 146.143 183.025 146.143C201.616 146.143 197.605 136.21 197.605 136.21L196.778 129.7Z" fill="#FABA97"/>
<path d="M185.078 113.241C184.553 113.162 183.9 113.226 183.232 113.369C181.37 113.735 179.444 113.719 177.597 113.353C177.263 113.289 176.897 113.21 176.563 113.21C176.387 113.226 176.181 113.241 176.021 113.305C175.273 113.608 175.13 114.499 175.273 115.199C175.512 116.425 176.356 117.539 177.486 118.303C178.186 118.765 179.03 119.099 179.905 119.226C181.911 119.529 184.06 118.813 185.397 117.475C185.604 117.269 185.779 117.062 185.938 116.823C186.511 115.963 186.797 114.881 186.304 113.99C186.065 113.544 185.635 113.321 185.078 113.241Z" fill="#393939"/>
<path d="M183.248 113.369C181.386 113.735 179.46 113.719 177.613 113.353C177.279 113.289 176.913 113.21 176.578 113.21C176.515 113.639 176.515 114.085 176.785 114.435C177.04 114.77 177.486 114.929 177.916 115.024C179.682 115.47 181.545 115.502 183.312 115.136C183.805 115.04 184.314 114.897 184.649 114.531C184.967 114.197 185.062 113.719 185.094 113.241C184.553 113.162 183.9 113.226 183.248 113.369Z" fill="white"/>
<path d="M180.558 116.696C179.396 116.887 178.186 117.396 177.486 118.287C178.186 118.749 179.03 119.083 179.905 119.21C181.911 119.513 184.06 118.797 185.397 117.46C183.964 116.648 182.213 116.409 180.558 116.696Z" fill="#98121D"/>
<path d="M205.293 96.6238C203.845 95.5892 201.346 95.812 200.2 97.0854L198.926 106.715C200.041 107.67 201.919 107.83 203.383 107.288C204.848 106.747 205.882 105.601 206.423 104.344C206.965 103.086 207.028 101.733 206.949 100.412C206.885 99.0273 206.551 97.5311 205.293 96.6238Z" fill="#FABA97"/>
<path d="M198.003 64.1525C195.281 61.924 192.464 59.6797 189.074 58.4859C182.579 56.1938 175.098 58.1994 169.368 61.8763C161.282 67.0813 155.743 75.6129 154.549 84.7176L154.995 91.5621C166.566 89.27 177.152 82.9349 184.267 74.1008C190.379 81.1044 198.433 86.6118 207.426 89.9226C208.158 84.256 208.827 78.2393 206.217 73.0821C204.386 69.5166 201.187 66.7629 198.003 64.1525Z" fill="#272727"/>
<path d="M195.106 117.173C192.464 120.436 189.424 122.442 186.543 122.871C178.727 124.065 172.886 122.33 168.588 118.351L168.572 118.335L168.286 122.68C171.819 125.673 177.024 127.933 182.611 128.57C186.384 129 192.719 126.739 195.647 121.121L195.122 117.109C195.138 117.141 195.138 117.157 195.106 117.173Z" fill="#F5927E"/>
<path d="M180.685 92.167C180.43 92.2306 180.271 92.5012 180.351 92.7559C180.367 92.8196 182.054 99.282 180.828 103.182C179.205 103.166 175.417 103.325 175.05 104.885C174.684 106.477 178.075 109.74 179.125 110.695C179.221 110.774 179.332 110.822 179.444 110.822C179.571 110.822 179.698 110.774 179.794 110.663C179.969 110.472 179.953 110.169 179.762 109.994C177.804 108.196 175.799 105.808 175.958 105.108C176.085 104.551 178.504 104.089 181.131 104.153C181.338 104.153 181.513 104.025 181.592 103.834C183.121 99.7118 181.322 92.8196 181.258 92.5171C181.21 92.2625 180.94 92.1033 180.685 92.167Z" fill="#D17A6B"/>
<path d="M189.663 96.5124C188.787 96.3373 187.896 97.0217 187.689 98.0564C187.482 99.091 188.023 100.078 188.899 100.253C189.774 100.428 190.665 99.7436 190.888 98.709C191.079 97.6744 190.538 96.6875 189.663 96.5124Z" fill="#151515"/>
<path d="M172.456 96.5124C171.58 96.3373 170.689 97.0217 170.466 98.0564C170.259 99.091 170.801 100.078 171.676 100.253C172.551 100.428 173.443 99.7436 173.666 98.709C173.888 97.6744 173.331 96.6875 172.456 96.5124Z" fill="#151515"/>
<path d="M189.026 89.8112C188.803 89.9385 188.723 90.241 188.867 90.4638C188.994 90.6867 189.296 90.7662 189.519 90.623C189.726 90.4957 194.581 87.6942 197.558 92.4535C197.653 92.5967 197.796 92.6763 197.955 92.6763C198.035 92.6763 198.131 92.6604 198.21 92.5967C198.433 92.4535 198.497 92.167 198.369 91.9441C194.899 86.389 189.09 89.7635 189.026 89.8112Z" fill="#343434"/>
<path d="M174.477 89.8114C174.414 89.7796 168.604 86.4051 165.134 91.9444C164.991 92.1672 165.054 92.4696 165.293 92.597C165.373 92.6447 165.452 92.6766 165.548 92.6766C165.707 92.6766 165.866 92.597 165.946 92.4537C168.922 87.6944 173.777 90.5118 173.984 90.6232C174.207 90.7506 174.509 90.6869 174.637 90.4641C174.78 90.2412 174.7 89.9388 174.477 89.8114Z" fill="#343434"/>
<path d="M207.331 95.6847C205.978 94.857 204.227 95.048 202.603 95.9394C204.673 97.8335 204.752 101.813 202.651 105.283C201.935 106.461 201.059 107.464 200.088 108.212C200.009 108.164 199.913 108.148 199.834 108.1C202.253 109.565 205.882 107.957 207.952 104.535C210.037 101.097 209.75 97.1491 207.331 95.6847Z" fill="#F5927E"/>
<path d="M202.603 95.9394C202.285 100.492 201.378 104.598 200.057 108.18C200.072 108.196 200.072 108.196 200.088 108.196C201.043 107.448 201.935 106.461 202.651 105.283C204.752 101.797 204.673 97.8336 202.603 95.9394Z" fill="#FABA97"/>
<path d="M159.531 105.283C157.43 101.797 157.51 97.8336 159.579 95.9394C157.939 95.048 156.204 94.8729 154.851 95.6847C152.432 97.1491 152.161 101.097 154.231 104.535C156.3 107.957 159.929 109.565 162.348 108.1C162.269 108.148 162.173 108.164 162.094 108.212C161.123 107.464 160.247 106.477 159.531 105.283Z" fill="#F5927E"/>
<path d="M159.579 95.9394C157.51 97.8336 157.446 101.797 159.531 105.283C160.247 106.461 161.139 107.448 162.094 108.196C162.11 108.196 162.126 108.18 162.141 108.18C161.871 107.511 161.632 106.827 161.393 106.126C160.741 104.2 160.009 100.364 159.579 95.9394Z" fill="#FABA97"/>
<path d="M168.397 101.495C165.596 101.319 163.224 103.023 163.081 105.299C162.937 107.575 165.086 109.549 167.888 109.724C170.689 109.899 173.061 108.196 173.204 105.92C173.347 103.643 171.183 101.67 168.397 101.495Z" fill="#F5927E"/>
<path d="M192.989 102.434C190.188 102.259 187.816 103.962 187.673 106.238C187.53 108.514 189.678 110.488 192.48 110.663C195.281 110.838 197.653 109.135 197.796 106.859C197.94 104.582 195.791 102.609 192.989 102.434Z" fill="#F5927E"/>
<path d="M204.306 73.1776C203.94 71.6177 203.574 70.0578 203.017 68.5616C201.441 64.3116 198.306 60.6984 194.183 58.7565C191.573 57.5309 188.723 57.4035 185.906 57.5945C183.391 57.7696 180.956 57.3876 178.441 57.5468C173.236 57.8651 168.174 60.0299 164.211 63.4044C158.91 67.893 148.819 80.8179 160.088 96.4806C160.693 86.6277 173.3 76.2974 181.545 78.096C184.585 86.1502 195.281 93.4563 198.353 94.1089C211.676 96.9262 206.057 88.6174 205.596 80.6747C205.468 78.1438 204.879 75.6607 204.306 73.1776Z" fill="#272727"/>
<path d="M176.897 73.1776C174.828 73.6869 172.79 74.4351 170.912 75.4378C169.034 76.4406 167.283 77.6981 165.739 79.1466C164.147 80.6428 162.778 82.346 161.712 84.2401C160.613 86.182 159.818 88.299 159.372 90.4956C159.149 91.578 159.022 92.6922 158.99 93.8064C158.958 94.9207 159.006 96.0667 159.229 97.165C159.276 97.4356 159.34 97.6903 159.404 97.9609C159.436 98.0564 159.547 98.12 159.642 98.0882C159.754 98.0564 159.786 97.9609 159.77 97.8494C159.451 95.7006 159.42 93.504 159.754 91.3552C160.104 89.1904 160.789 87.0893 161.791 85.1474C162.778 83.2373 164.052 81.5023 165.548 79.9584C167.012 78.4621 168.668 77.1728 170.466 76.1064C172.281 75.024 174.191 74.1485 176.196 73.5119C176.451 73.4323 176.69 73.3527 176.945 73.289C177.024 73.289 176.976 73.1617 176.897 73.1776Z" fill="#4B4B4B"/>
<path d="M159.658 97.7539C159.563 97.7062 159.483 97.6266 159.388 97.5789C159.292 97.5152 159.213 97.4674 159.117 97.4038C158.942 97.2923 158.767 97.165 158.608 97.0536C158.465 96.9581 158.305 96.8148 158.162 96.6875C158.019 96.5601 157.86 96.4169 157.732 96.2736C157.175 95.7006 156.73 95.0798 156.348 94.3636C155.966 93.6314 155.695 92.8832 155.472 92.0715C155.249 91.2119 155.122 90.3683 155.058 89.5088C154.995 88.6015 154.979 87.6783 155.042 86.7551C155.09 85.8159 155.202 84.8927 155.361 83.9695C155.52 83.0463 155.727 82.1231 155.966 81.1999C156.204 80.3245 156.475 79.449 156.793 78.6054C157.08 77.8095 157.414 77.0455 157.78 76.2815C158.114 75.6129 158.465 74.9603 158.878 74.3236C158.974 74.1804 159.069 74.053 159.165 73.9257C159.197 73.878 159.117 73.8143 159.085 73.862C158.64 74.4351 158.242 75.0399 157.892 75.6766C157.478 76.4088 157.112 77.1569 156.793 77.921C156.443 78.7646 156.125 79.6082 155.854 80.4836C155.568 81.3909 155.329 82.3141 155.138 83.2373C154.947 84.1765 154.804 85.1315 154.708 86.1025C154.613 87.0416 154.581 87.9807 154.613 88.9198C154.644 89.8271 154.756 90.7344 154.931 91.6258C155.106 92.4694 155.361 93.2971 155.711 94.093C156.045 94.857 156.491 95.5574 157.032 96.21C157.557 96.8467 158.21 97.4197 158.926 97.8176C159.022 97.8654 159.117 97.9131 159.197 97.9609C159.292 98.0086 159.404 98.0405 159.499 98.0882C159.69 98.1519 159.865 97.8654 159.658 97.7539Z" fill="#4B4B4B"/>
<path d="M202.365 93.5677C201.664 93.3767 200.98 93.1857 200.311 92.9469C199.643 92.7081 198.974 92.4216 198.337 92.0874C197.032 91.4188 195.807 90.5911 194.676 89.6679C193.499 88.697 192.4 87.6305 191.398 86.5004C190.379 85.3703 189.44 84.1605 188.58 82.9031C187.737 81.6774 186.957 80.3881 186.256 79.0829C186.177 78.9237 186.097 78.7646 186.017 78.6213C186.002 78.5895 185.954 78.6213 185.97 78.6531C186.606 80.0061 187.339 81.3113 188.134 82.5847C188.946 83.8899 189.854 85.1474 190.84 86.3253C191.827 87.5032 192.878 88.6174 194.04 89.6043C195.17 90.5911 196.396 91.4666 197.717 92.1988C198.99 92.8992 200.359 93.4722 201.776 93.7905C201.951 93.8224 202.126 93.8542 202.301 93.8701C202.38 93.886 202.46 93.8542 202.492 93.7587C202.492 93.6791 202.444 93.5995 202.365 93.5677Z" fill="#4B4B4B"/>
<path d="M202.126 93.2493C201.823 92.9628 201.521 92.6604 201.219 92.3739C200.614 91.7849 200.025 91.1642 199.468 90.5275C198.353 89.27 197.351 87.933 196.427 86.5322C195.902 85.7364 195.409 84.9246 194.947 84.0969C194.804 83.8263 194.374 84.065 194.533 84.3356C195.345 85.8319 196.268 87.2803 197.287 88.6333C198.306 90.0022 199.436 91.3074 200.645 92.5331C200.98 92.8673 201.33 93.2016 201.68 93.5199C202.046 93.8383 202.428 94.1407 202.826 94.4113C202.985 94.5227 203.145 94.284 203.017 94.1566C202.731 93.8383 202.444 93.5359 202.126 93.2493Z" fill="#4B4B4B"/>
<path d="M192.225 77.905C191.509 75.7721 190.984 73.5914 190.649 71.3789C190.458 70.1215 190.347 68.864 190.283 67.6065C190.283 67.4951 190.108 67.4951 190.108 67.6065C190.124 69.8668 190.379 72.143 190.84 74.3555C191.302 76.568 191.986 78.7486 192.862 80.8338C193.355 82.0276 193.912 83.1737 194.533 84.3038C194.692 84.5903 195.122 84.3356 194.963 84.0491C193.865 82.1072 192.942 80.0379 192.225 77.905Z" fill="#4B4B4B"/>
<path d="M314.104 150.615L273.881 193.337C273.197 193.783 272.512 194.245 271.876 194.706L271.334 194.181C269.615 202.219 264.649 218.423 251.263 232.128C252.425 232.653 253.523 233.035 254.573 233.242C256.34 233.768 257.996 233.911 259.54 233.72C270.507 234.261 285.326 224.106 285.326 224.106L329.035 165.275C325.39 159.593 316.746 154.993 314.104 150.615Z" fill="#FABA97"/>
<path d="M355.362 145.84C360.79 143.851 357.718 137.977 353.786 140.365L353.611 140.237C356.89 138.773 354.455 134.109 348.884 135.908L326.408 142.673C327.252 141.718 333.603 131.531 327.236 128.427C327.236 128.427 319.277 139.744 316.683 144.057C315.187 146.19 314.2 148.26 313.595 150.217C312.115 159.29 318.832 167.758 321.951 169.255C324.339 170.13 327.395 170.146 331.9 168.697C341.355 165.657 351.892 159.402 351.892 159.402C356.763 156.537 355.219 153.067 352.831 153.417C361.108 151.411 359.612 144.853 355.362 145.84Z" fill="#FABA97"/>
<path d="M333.332 142.036L332.839 142.943C332.887 142.975 337.439 145.824 337.343 162.967H338.362C338.49 145.012 333.555 142.163 333.332 142.036Z" fill="#F5927E"/>
<path d="M355.18 145.371L337.35 152.397L337.723 153.344L355.554 146.319L355.18 145.371Z" fill="#F5927E"/>
<path d="M354.3 152.396L337.626 159.101L338.006 160.046L354.68 153.341L354.3 152.396Z" fill="#F5927E"/>
<path d="M353.696 139.496L335.647 146.354L336.009 147.306L354.058 140.448L353.696 139.496Z" fill="#F5927E"/>
<path d="M326.822 142.45L326.376 142.705L326.822 142.45Z" fill="#F5927E"/>
<path d="M326.822 142.45L326.376 142.704C326.504 142.911 329.289 147.83 322.349 153.863L323.018 154.642C330.642 148.021 327.284 142.243 327.252 142.179L326.822 142.45Z" fill="#F5927E"/>
<path d="M229.917 181.782C229.949 182.116 231.732 197.412 231.334 204.129C231.334 204.145 231.334 204.177 231.334 204.193C230.936 210.878 229.137 221.288 229.074 221.686V221.702L243.829 238.75C246.567 236.649 249.034 234.42 251.278 232.112C255.21 228.085 258.409 223.851 261.02 219.665C257.836 217.58 254.366 215.51 251.278 213.919C242.206 209.239 230.108 182.211 229.917 181.782Z" fill="#858585"/>
<path d="M181.974 157.762C180.08 157.762 178.552 159.29 178.552 161.184C178.552 163.079 180.08 164.607 181.974 164.607C183.869 164.607 185.397 163.079 185.397 161.184C185.397 159.29 183.869 157.762 181.974 157.762Z" fill="white"/>
<path d="M181.974 173.568C180.08 173.568 178.552 175.096 178.552 176.99C178.552 178.885 180.08 180.413 181.974 180.413C183.869 180.413 185.397 178.885 185.397 176.99C185.397 175.096 183.869 173.568 181.974 173.568Z" fill="white"/>
<path d="M219.571 134.603C208.334 131.578 208.334 131.578 196.985 132.056C203.733 145.06 208.079 159.195 209.75 173.759C216.802 235.152 208.143 244.894 214.096 306.685C216.34 330.004 215.958 320.326 214.096 343.677C228.469 343.438 249.082 333.824 263.105 330.64C251.326 267.305 246.869 197.38 246.869 197.094C251.103 202.554 239.038 139.823 219.571 134.603Z" fill="#F7F7F7"/>
<path d="M211.04 131.992C211.04 131.992 207.012 147.543 205.277 155.231C203.542 162.919 209.273 177.197 209.273 177.197L212.408 239.434L216.722 220.508L223.025 160.245L215.369 157.762L223.216 152.701L211.04 131.992Z" fill="#E2E2E2"/>
<path d="M216.897 151.714L211.04 131.992C205.118 131.833 203.638 131.96 198.226 132.183C196.22 136.958 202.333 152.955 203.145 163.047C204.593 181.081 208.015 193.751 208.015 193.751L212.599 237.556L217.82 162.744L212.154 158.208L216.897 151.714Z" fill="#E2E2E2"/>
<path d="M231.525 265.841C231.859 264.711 247.888 247.058 247.888 247.058L214.318 248.332L224.776 286.995L255.067 273.879C255.083 273.863 231.191 266.987 231.525 265.841Z" fill="#F7F7F7"/>
<path d="M247.888 247.058L218.521 250.958L220.065 257.23L226.272 282.347L255.083 273.863L249.575 253.378L247.888 247.058Z" fill="#F7F7F7"/>
<path d="M236.794 258.423C244.577 257.723 249.575 253.394 249.575 253.394L220.065 257.246C220.065 257.23 229.026 259.124 236.794 258.423Z" fill="#F7F7F7"/>
<path d="M288.43 163.843C280.121 179.617 273.499 186.923 273.499 186.923C263.599 171.435 251.485 159.083 247.06 150.599C242.619 142.116 236.284 140.03 221.147 135.128L226.925 214.937C234.804 214.89 253.045 242.156 269.854 243.795C291.295 245.881 322.779 198.399 329.671 184.503C315.696 181.447 301.943 178.105 288.43 163.843Z" fill="#F7F7F7"/>
<path d="M240.311 164.479C243.368 172.327 244.243 193.831 244.243 193.831V197.237C244.243 197.237 237.51 217.086 241.792 217.086C239.516 212.04 245.819 205.482 247.474 192.812C249.13 180.142 238.179 159.02 240.311 164.479Z" fill="#F7F7F7"/>
<path d="M144.68 134.603C125.213 139.839 113.164 202.57 117.382 197.078C117.382 197.365 113.625 260.206 101.847 323.541C115.87 326.725 142.611 344.759 157 344.998C155.138 321.647 147.911 330.004 150.156 306.669C156.109 244.878 147.45 235.136 154.501 173.743C156.172 159.179 160.502 145.06 167.267 132.04C155.902 131.578 155.902 131.578 144.68 134.603Z" fill="#F7F7F7"/>
<path d="M153.212 131.992L141.019 152.701L148.866 157.762L141.21 160.245L147.513 220.508L151.827 239.434L154.963 177.197C154.963 177.197 160.693 162.919 158.958 155.231C157.255 147.543 153.212 131.992 153.212 131.992Z" fill="#E2E2E2"/>
<path d="M153.212 131.992L147.354 151.714L152.098 158.224L146.447 162.76L151.668 237.572L156.252 193.767C156.252 193.767 159.674 181.097 161.123 163.063C161.935 152.955 168.031 136.958 166.041 132.199C160.629 131.96 159.149 131.833 153.212 131.992Z" fill="#E2E2E2"/>
<path d="M132.726 265.841C133.061 266.971 109.169 273.863 109.169 273.863L139.459 286.979L149.917 248.316L116.347 247.043C116.363 247.058 132.408 264.711 132.726 265.841Z" fill="#F7F7F7"/>
<path d="M114.676 253.378L109.169 273.863L137.979 282.347L144.187 257.23L145.731 250.958L116.363 247.058L114.676 253.378Z" fill="#F7F7F7"/>
<path d="M127.458 258.423C135.241 259.124 144.187 257.23 144.187 257.23L114.676 253.378C114.676 253.378 119.674 257.707 127.458 258.423Z" fill="#F7F7F7"/>
<path d="M157.382 267.719C161.887 267.862 167.251 270.728 171.549 271.014C174.111 263.151 152.989 260.668 146.224 260.827C143.502 260.891 140.398 261.002 137.263 261.193C134.732 261.352 132.185 261.575 129.813 261.893C127.744 258.185 125.802 254.731 123.988 251.531L123.781 251.595L123.399 251.372C120.581 246.485 117.939 242.347 115.392 238.352C112.591 233.958 109.917 229.74 107.259 224.949C106.845 225.204 106.431 225.475 106.001 225.729C100.621 221.973 95.9095 217.118 91.8824 211.961C87.0913 205.817 83.0324 198.988 79.7216 191.809C79.1485 190.584 78.6233 189.342 78.098 188.101L73.5138 192.462C68.3407 196.043 66.0327 200.484 65.4756 205.069C64.4409 213.632 69.4071 222.689 72.8134 227.783C74.5166 230.313 75.8218 231.857 75.8218 231.857L111.97 271.38C111.922 271.476 111.89 271.555 111.89 271.555C112.225 271.778 112.543 272.049 112.861 272.367L113.021 272.558C115.185 274.834 116.889 278.845 119.053 280.708C123.049 284.13 127.203 284.416 131.039 284.241C132.121 284.194 133.172 284.114 134.191 284.034C139.555 283.684 143.98 281.774 149.36 281.679C154.851 281.567 158.926 285.913 161.855 284.942C162.237 279.784 156.204 277.572 149.121 276.649C153.467 276.458 156.539 277.572 158.544 278.447C161.712 279.816 166.328 285.085 167.744 282.299C167.904 276.251 155.456 271.062 149.535 271.316C152.209 270.903 158.799 272.144 162.046 273.847C164.752 275.28 171.803 281.265 172.36 279.243C173.586 273.847 168.126 270.393 157.382 267.719Z" fill="#FABA97"/>
<path d="M100.112 267.019C109.089 260.302 127.808 246.852 129.431 240.707C122.078 232.446 108.15 214.11 110.506 209.112C112.861 204.114 127.505 195.295 135.448 188.101C137.183 179.091 142.706 135.16 142.706 135.16C142.706 135.16 104.362 151.952 70.6009 185.713C36.8403 219.474 93.9676 262.164 100.112 267.019Z" fill="#F7F7F7"/>
</svg>
