<svg width="97" height="15" viewBox="0 0 97 15" fill="none" xmlns="http://www.w3.org/2000/svg">
<path d="M43.336 9.06C43.336 8.156 43.62 7.408 44.188 6.816C44.764 6.224 45.488 5.928 46.36 5.928C47.232 5.928 47.952 6.224 48.52 6.816C49.096 7.408 49.384 8.156 49.384 9.06C49.384 9.972 49.096 10.72 48.52 11.304C47.952 11.896 47.232 12.192 46.36 12.192C45.488 12.192 44.764 11.896 44.188 11.304C43.62 10.712 43.336 9.964 43.336 9.06ZM44.44 9.06C44.44 9.692 44.624 10.204 44.992 10.596C45.36 10.988 45.816 11.184 46.36 11.184C46.904 11.184 47.36 10.988 47.728 10.596C48.096 10.204 48.28 9.692 48.28 9.06C48.28 8.436 48.096 7.928 47.728 7.536C47.352 7.136 46.896 6.936 46.36 6.936C45.824 6.936 45.368 7.136 44.992 7.536C44.624 7.928 44.44 8.436 44.44 9.06ZM51.3737 12H50.2697V6.12H51.3257V7.08H51.3737C51.4857 6.768 51.7137 6.504 52.0577 6.288C52.4097 6.064 52.7537 5.952 53.0897 5.952C53.4097 5.952 53.6817 6 53.9057 6.096L53.5697 7.164C53.4337 7.108 53.2177 7.08 52.9217 7.08C52.5057 7.08 52.1417 7.248 51.8297 7.584C51.5257 7.92 51.3737 8.312 51.3737 8.76V12Z" fill="#08101B"/>
<line x1="60.5" y1="8.5" x2="96.5" y2="8.5" stroke="black" stroke-linecap="round"/>
<line x1="0.5" y1="8.5" x2="36.5" y2="8.5" stroke="black" stroke-linecap="round"/>
</svg>
